<svg xmlns="http://www.w3.org/2000/svg" viewBox="0 0 1032 1344" width="1032" height="1344"><path d="M 775.806 26.775 C 773.988 28.322, 771.293 30.346, 769.818 31.272 C 768.344 32.199, 763.394 36.805, 758.818 41.508 C 750.261 50.306, 732.449 68.820, 730.278 71.175 C 728.907 72.661, 727.718 73.882, 724.800 76.800 C 723.700 77.900, 722.350 79.250, 721.800 79.800 C 721.250 80.350, 719.900 81.700, 718.800 82.800 C 717.700 83.900, 716.350 85.250, 715.800 85.800 C 715.250 86.350, 713.900 87.700, 712.800 88.800 C 711.700 89.900, 710.282 91.307, 709.650 91.926 C 709.018 92.546, 706.374 95.178, 703.776 97.776 C 701.178 100.374, 698.478 103.074, 697.776 103.776 C 693.548 108.003, 681.943 120.261, 672 131.003 C 665.675 137.836, 656.615 147.494, 651.866 152.464 C 647.117 157.434, 642.916 162.625, 642.530 164 C 642.144 165.375, 640.629 167.506, 639.164 168.735 C 636.586 170.897, 636.489 171.366, 636.161 183.228 L 635.821 195.488 638.770 197.994 C 640.392 199.372, 642.218 201.457, 642.829 202.628 C 643.440 203.798, 644.966 204.998, 646.220 205.296 C 647.474 205.593, 650.300 206.438, 652.500 207.174 C 655.728 208.253, 667.688 208.414, 714.500 208.006 C 746.400 207.728, 773.513 207.826, 774.750 208.225 C 779.694 209.819, 776.530 216.210, 765.250 227.414 C 763.462 229.189, 762 231.072, 762 231.598 C 762 232.124, 760.763 233.751, 759.250 235.212 C 755.081 239.242, 746.058 250.149, 744.408 253.154 C 743.177 255.397, 733.266 266.648, 729.250 270.362 C 727.462 272.015, 726 273.974, 726 274.715 C 726 275.456, 725.390 276.297, 724.645 276.583 C 723.900 276.869, 721.087 279.835, 718.395 283.175 C 715.703 286.514, 710.913 292.317, 707.750 296.069 C 704.587 299.821, 702 303.375, 702 303.967 C 702 304.559, 700.875 305.555, 699.500 306.182 C 698.125 306.808, 697 307.722, 697 308.212 C 697 308.702, 694.304 311.892, 691.009 315.301 C 687.714 318.711, 680.401 326.910, 674.759 333.523 C 663.531 346.682, 656.261 354.723, 651.250 359.527 C 649.462 361.240, 648 363.157, 648 363.786 C 648 364.415, 647.065 365.430, 645.922 366.042 C 643.028 367.591, 636 374.537, 636 375.848 C 636 376.443, 634.996 377.467, 633.769 378.124 C 632.542 378.780, 629.860 381.159, 627.809 383.409 C 625.758 385.659, 623.387 388.175, 622.539 389 C 621.692 389.825, 619.087 392.453, 616.749 394.839 C 614.412 397.226, 611.668 399.993, 610.650 400.989 C 609.633 401.985, 608.350 403.250, 607.800 403.800 C 604.908 406.692, 602.702 408.825, 596.849 414.389 C 593.314 417.750, 588.414 422.378, 585.961 424.672 C 583.507 426.967, 580.979 429.371, 580.342 430.014 C 577.478 432.905, 571.289 438.417, 557.424 450.425 C 542.409 463.429, 539.766 465.832, 532.650 472.951 C 525.407 480.197, 506.047 496.407, 502.355 498.316 C 500.643 499.202, 498.975 500.622, 498.649 501.472 C 498.323 502.322, 496.968 503.513, 495.638 504.119 C 494.309 504.725, 492.731 506.296, 492.132 507.610 C 491.533 508.925, 490.389 510, 489.590 510 C 488.790 510, 487.194 511.323, 486.042 512.941 C 484.890 514.558, 482.947 516.194, 481.724 516.576 C 480.501 516.958, 478.022 518.559, 476.215 520.135 C 474.409 521.711, 472.597 523, 472.189 523 C 471.781 523, 468.583 525.700, 465.082 529 C 461.582 532.300, 458.404 535, 458.020 535 C 457.635 535, 456.808 536.125, 456.182 537.500 C 455.555 538.875, 454.374 540, 453.556 540 C 452.739 540, 450.532 541.350, 448.653 543 C 446.774 544.650, 444.741 546, 444.135 546 C 442.959 546, 438.710 549.463, 433.399 554.750 C 431.603 556.538, 429.728 558, 429.232 558 C 428.736 558, 427.128 559.350, 425.658 561 C 424.187 562.650, 422.356 564, 421.587 564 C 419.992 564, 413.486 569.013, 402.102 579.014 C 400.233 580.657, 398.111 582, 397.386 582 C 396.662 582, 394.532 583.350, 392.653 585 C 390.774 586.650, 388.746 588, 388.148 588 C 387.549 588, 386.062 589.350, 384.842 591 C 383.622 592.650, 382.118 594, 381.499 594 C 380.880 594, 379.081 595.350, 377.500 597 C 375.919 598.650, 373.790 600, 372.767 600 C 371.745 600, 369.786 601.123, 368.414 602.495 C 367.041 603.868, 364.641 605.651, 363.080 606.459 C 361.519 607.266, 359.982 608.603, 359.665 609.431 C 359.347 610.259, 357.605 611.630, 355.794 612.476 C 352.272 614.122, 347.066 617.591, 343 621 C 338.844 624.484, 333.698 627.892, 330 629.609 C 328.075 630.503, 325.600 632.095, 324.500 633.148 C 319.856 637.592, 315.223 640.906, 312.805 641.513 C 311.383 641.870, 308.961 643.475, 307.422 645.081 C 305.884 646.686, 304.014 648, 303.265 648 C 302.517 648, 300.913 649.059, 299.702 650.352 C 298.491 651.646, 295.814 653.255, 293.753 653.929 C 291.692 654.602, 289.442 655.947, 288.753 656.918 C 288.064 657.888, 286.375 659.271, 285 659.990 C 283.625 660.709, 281.228 662.355, 279.673 663.649 C 278.119 664.942, 276.055 666, 275.089 666 C 274.122 666, 272.128 667.350, 270.658 669 C 269.187 670.650, 267.393 672, 266.670 672 C 265.948 672, 263.589 673.337, 261.428 674.972 C 259.268 676.607, 256.941 677.957, 256.258 677.972 C 255.574 677.987, 253.847 679.311, 252.419 680.914 C 250.991 682.516, 248.656 684.121, 247.229 684.479 C 245.802 684.837, 243.332 686.226, 241.740 687.565 C 240.149 688.904, 238.273 690, 237.572 690 C 236.870 690, 234.884 691.350, 233.157 693 C 231.431 694.650, 229.176 696, 228.147 696 C 227.117 696, 224.576 697.350, 222.500 699 C 220.424 700.650, 218.174 702, 217.500 702 C 216.826 702, 214.576 703.350, 212.500 705 C 210.424 706.650, 208.179 708, 207.511 708 C 206.843 708, 204.884 709.350, 203.157 711 C 201.431 712.650, 199.130 714, 198.044 714 C 196.958 714, 194.688 715.350, 193 717 C 191.312 718.650, 189.333 720, 188.603 720 C 187.873 720, 185.615 721.319, 183.586 722.932 C 181.557 724.544, 178.616 726.145, 177.052 726.489 C 175.487 726.832, 173.431 727.971, 172.483 729.019 C 171.534 730.067, 169.125 731.457, 167.129 732.107 C 165.133 732.758, 162.273 734.311, 160.774 735.560 C 159.275 736.809, 156.683 738.130, 155.016 738.497 C 153.348 738.863, 151.523 740.023, 150.960 741.075 C 150.381 742.157, 147.984 743.479, 145.436 744.120 C 142.961 744.744, 140.346 746.095, 139.626 747.124 C 138.905 748.152, 136.885 749.493, 135.137 750.102 C 133.388 750.712, 131.512 752.044, 130.967 753.062 C 130.422 754.081, 128.362 755.217, 126.390 755.587 C 124.417 755.957, 121.482 757.551, 119.867 759.130 C 118.060 760.897, 115.863 762, 114.153 762 C 112.371 762, 110.343 763.076, 108.500 765 C 106.599 766.984, 104.643 768, 102.723 768 C 100.749 768, 98.977 768.960, 97.187 771 C 95.278 773.175, 93.663 774, 91.312 774 C 89.184 774, 86.941 774.978, 84.785 776.847 C 82.978 778.413, 79.976 779.989, 78.112 780.349 C 76.249 780.710, 73.683 782.129, 72.410 783.503 C 70.900 785.132, 69.017 786, 66.991 786 C 64.867 786, 63.037 786.905, 61.194 788.867 C 59.485 790.685, 57.071 791.952, 54.594 792.329 C 52.413 792.662, 49.518 794.045, 48.039 795.462 C 46.515 796.923, 44.222 798, 42.639 798 C 40.911 798, 38.885 799.060, 37.194 800.849 C 35.712 802.416, 33.709 803.979, 32.741 804.321 C 31.774 804.664, 30.468 806.073, 29.840 807.453 C 29.211 808.833, 27.902 810.214, 26.932 810.522 C 25.961 810.830, 24.742 812.301, 24.222 813.792 C 23.703 815.283, 22.090 818.252, 20.639 820.391 L 18 824.279 18 1062.599 L 18 1300.919 20.419 1303.210 C 21.750 1304.469, 23.335 1307.385, 23.942 1309.690 C 24.663 1312.429, 25.750 1314.103, 27.083 1314.526 C 28.205 1314.882, 29.613 1316.251, 30.213 1317.568 C 30.813 1318.884, 32.138 1320.226, 33.157 1320.550 C 34.177 1320.873, 36.334 1322.251, 37.951 1323.612 C 40.616 1325.855, 42.225 1326.180, 55.195 1327.101 C 70.330 1328.176, 979.689 1327.376, 983.500 1326.285 C 984.600 1325.970, 986.850 1324.704, 988.500 1323.472 C 990.150 1322.240, 992.444 1320.946, 993.598 1320.597 C 994.752 1320.247, 996.205 1318.845, 996.827 1317.481 C 997.448 1316.116, 998.385 1315, 998.907 1315 C 1000.818 1315, 1003 1311.782, 1003 1308.963 C 1003 1307.095, 1004.065 1304.979, 1006.004 1302.996 L 1009.008 1299.923 1008.754 675.711 L 1008.500 51.500 1006.213 48.294 C 1004.956 46.531, 1003.426 43.651, 1002.813 41.894 C 1001.382 37.787, 994.750 31.154, 990.670 29.748 C 988.927 29.147, 986.225 27.720, 984.667 26.578 C 981.848 24.511, 981.310 24.499, 880.472 24.231 L 779.112 23.963 775.806 26.775 M 852.447 361.500 C 850.997 363.975, 849.457 366, 849.026 366 C 848.595 366, 847.690 367.335, 847.014 368.967 C 846.338 370.598, 844.928 372.205, 843.881 372.538 C 842.835 372.870, 841.296 374.460, 840.463 376.071 C 839.630 377.682, 838.584 379, 838.139 379 C 837.693 379, 833.992 383.104, 829.915 388.121 C 816.813 404.237, 809.840 412.435, 806.885 415.194 C 805.298 416.675, 804 418.332, 804 418.876 C 804 419.420, 803.073 420.160, 801.939 420.519 C 800.806 420.879, 799.387 422.251, 798.787 423.568 C 798.187 424.884, 796.837 426.234, 795.787 426.568 C 794.737 426.901, 793.406 428.210, 792.829 429.476 C 792.252 430.743, 790.704 432.269, 789.390 432.868 C 788.075 433.467, 787 434.444, 787 435.040 C 787 435.636, 782.837 440.341, 777.750 445.497 C 763.862 459.572, 758.854 465.085, 755.950 469.500 C 753.785 472.790, 734.960 492.844, 723.317 504.263 L 720.500 507.027 720 840.263 C 719.716 1029.250, 719.878 1174.041, 720.372 1174.750 C 721.056 1175.729, 736.141 1176, 790.063 1176 C 830.671 1176, 859.114 1175.624, 859.448 1175.084 C 859.831 1174.465, 860.339 432.387, 860.006 361.321 C 859.999 359.940, 857.254 357, 855.971 357 C 855.483 357, 853.898 359.025, 852.447 361.500 M 563.500 646.509 C 561.850 647.871, 559.050 650.339, 557.278 651.993 C 555.507 653.647, 553.416 655, 552.633 655 C 551.850 655, 550.150 656.117, 548.855 657.483 C 547.560 658.848, 545.923 659.973, 545.217 659.983 C 544.511 659.992, 542.434 661.462, 540.601 663.250 C 537.481 666.293, 534.815 668.146, 527.810 672.140 C 526.228 673.042, 523.853 674.842, 522.533 676.140 C 520.302 678.333, 517.479 680.588, 507.662 688.017 C 505.551 689.614, 503.004 691.181, 502.002 691.499 C 500.999 691.818, 499.453 693.185, 498.566 694.539 C 497.680 695.893, 496.315 697, 495.534 697 C 494.753 697, 493.525 697.828, 492.807 698.841 C 491.608 700.530, 487.764 703.338, 479.624 708.469 C 477.906 709.553, 475.680 711.465, 474.677 712.719 C 473.675 713.974, 472.238 715, 471.484 715 C 470.730 715, 469.445 715.954, 468.628 717.120 C 467.811 718.287, 466.034 719.974, 464.678 720.870 C 454.321 727.718, 445.224 735.195, 433.651 746.372 L 425.500 754.244 425.250 955.435 C 425.113 1066.090, 424.830 1160.549, 424.621 1165.342 C 424.288 1172.990, 424.465 1174.179, 426.067 1175.036 C 427.221 1175.653, 453.987 1175.919, 498.697 1175.757 L 569.500 1175.500 569.500 910.014 C 569.500 674.802, 569.329 644.499, 568 644.280 C 567.175 644.144, 565.150 645.147, 563.500 646.509 M 268.737 851.919 C 266.667 852.885, 263.967 854.586, 262.737 855.699 C 261.507 856.812, 258.980 858.232, 257.121 858.854 C 255.263 859.477, 252.697 861.114, 251.419 862.493 C 250.141 863.872, 248.236 865, 247.185 865 C 246.135 865, 243.652 866.237, 241.668 867.750 C 235.928 872.127, 229.713 875.783, 226.746 876.528 C 225.203 876.915, 223.456 878.362, 222.747 879.842 C 221.823 881.770, 220.470 882.634, 217.654 883.091 C 215.379 883.461, 212.824 884.789, 211.370 886.357 C 210.022 887.811, 208.323 889, 207.594 889 C 206.866 889, 205.105 889.916, 203.682 891.036 C 202.258 892.155, 199.610 893.568, 197.797 894.175 C 195.984 894.783, 193.288 896.566, 191.806 898.140 C 190.011 900.046, 188.117 901, 186.129 901 C 184.191 901, 182.500 901.821, 181.304 903.341 C 180.291 904.629, 178.489 906.203, 177.299 906.840 C 176.109 907.477, 174.857 908.875, 174.517 909.948 C 174.176 911.020, 173.030 912.173, 171.969 912.510 C 170.908 912.847, 169.113 915.217, 167.980 917.778 C 166.266 921.652, 165.966 924.119, 166.190 932.467 C 166.338 937.985, 166.333 994.402, 166.180 1057.838 C 165.969 1145.274, 166.187 1173.520, 167.080 1174.597 C 168.077 1175.798, 176.547 1175.977, 221.880 1175.759 L 275.500 1175.500 275.774 1015 C 275.924 926.725, 275.803 853.487, 275.505 852.250 C 274.867 849.605, 273.803 849.553, 268.737 851.919" fill="#FAF9F6" fill-rule="evenodd"/></svg>