<svg xmlns="http://www.w3.org/2000/svg" viewBox="0 0 3144 928" width="3144" height="928"><path d="M 532.666 34.286 C 523.151 41.719, 446.481 120.972, 444.500 125.422 C 443.950 126.657, 442.712 128.450, 441.750 129.405 C 440.384 130.762, 440.002 132.827, 440.011 138.821 C 440.021 146.181, 440.156 146.626, 443.261 149.541 C 449.224 155.138, 448.945 155.108, 492.713 154.943 C 514.940 154.859, 533.375 155.042, 533.682 155.349 C 534.747 156.414, 533.058 160.517, 530.287 163.597 C 524.763 169.737, 518.078 177.630, 515.102 181.527 C 510.822 187.131, 507.383 191.224, 504.122 194.593 C 502.575 196.192, 498.237 201.325, 494.482 206 C 486.679 215.714, 486.947 215.404, 479.082 223.767 C 475.840 227.214, 470.051 233.739, 466.218 238.267 C 462.385 242.795, 456.831 249.100, 453.875 252.278 C 450.919 255.456, 448.005 258.606, 447.399 259.278 C 446.794 259.950, 444.994 261.697, 443.399 263.160 C 441.805 264.624, 434.565 271.824, 427.310 279.160 C 413.771 292.854, 397.602 308.213, 390.477 314.149 C 385.382 318.394, 379.789 323.392, 374.417 328.500 C 366.445 336.081, 362.544 339.514, 356.531 344.241 C 353.214 346.848, 347.656 351.573, 344.179 354.741 C 340.703 357.908, 337.328 360.682, 336.679 360.905 C 334.903 361.515, 326.963 367.914, 322.985 371.941 C 321.051 373.899, 316.826 377.254, 313.594 379.397 C 307.789 383.247, 303.340 386.846, 300.180 390.250 C 299.287 391.212, 298.004 392, 297.329 392 C 296.655 392, 294.980 393.013, 293.608 394.250 C 287.394 399.854, 282.564 403.565, 280.136 404.600 C 277.827 405.585, 272.959 409.508, 267.916 414.448 C 267.045 415.302, 265.757 416, 265.055 416 C 264.352 416, 261.690 417.701, 259.139 419.781 C 256.587 421.860, 252.475 424.896, 250 426.528 C 247.525 428.159, 245.140 430.058, 244.700 430.747 C 244.260 431.436, 243.318 432, 242.605 432 C 241.893 432, 240.532 432.860, 239.581 433.910 C 238.631 434.961, 236.761 436.094, 235.426 436.429 C 234.092 436.764, 233 437.468, 233 437.993 C 233 438.519, 231.762 439.649, 230.250 440.505 C 227.405 442.115, 225.411 443.404, 217.910 448.488 C 215.484 450.132, 212.262 452.023, 210.750 452.690 C 209.238 453.357, 208 454.323, 208 454.835 C 208 455.347, 207.213 456.055, 206.250 456.407 C 204.057 457.210, 198.614 460.527, 192.559 464.750 C 189.997 466.537, 187.542 468, 187.105 468 C 186.668 468, 185.506 468.889, 184.523 469.974 C 183.540 471.060, 181.809 472.243, 180.675 472.603 C 179.541 472.963, 176.563 474.672, 174.056 476.402 C 171.550 478.131, 168.375 480.120, 167 480.822 C 163.841 482.434, 160.689 484.332, 155 488.046 C 152.525 489.662, 149.262 491.482, 147.750 492.090 C 146.238 492.698, 145 493.596, 145 494.084 C 145 494.573, 143.537 495.651, 141.750 496.479 C 139.963 497.308, 135.350 499.807, 131.500 502.033 C 127.650 504.259, 122.925 506.786, 121 507.648 C 119.075 508.510, 117.140 509.842, 116.700 510.608 C 116.260 511.373, 115.135 512.001, 114.200 512.001 C 113.265 512.002, 109.908 513.802, 106.739 516.001 C 103.571 518.201, 100.378 520, 99.644 520 C 98.910 520, 97.495 520.900, 96.500 522 C 95.505 523.100, 93.705 524, 92.500 524 C 91.295 524, 89.495 524.900, 88.500 526 C 87.505 527.100, 85.855 528, 84.835 528 C 83.815 528, 82.210 528.900, 81.268 530 C 80.326 531.100, 78.591 532, 77.413 532 C 76.234 532, 74.161 532.872, 72.806 533.938 C 71.451 535.004, 69.173 536.170, 67.743 536.528 C 66.314 536.887, 64.901 537.815, 64.604 538.590 C 64.306 539.366, 62.941 540, 61.570 540 C 60.200 540, 58.273 540.848, 57.289 541.884 C 56.305 542.919, 54.069 544.073, 52.319 544.448 C 50.570 544.822, 48.602 545.775, 47.947 546.564 C 47.291 547.354, 45.961 548, 44.991 548 C 42.406 548, 33.295 556.962, 30.454 562.298 L 28 566.908 28 724.819 C 28 881.216, 28.019 882.755, 30 885.273 C 31.100 886.671, 32 888.465, 32 889.258 C 32 891.313, 41.449 899.379, 44.739 900.132 C 46.258 900.479, 187.952 900.817, 359.615 900.882 C 670.306 900.999, 671.742 900.991, 674.273 899 C 675.671 897.900, 677.194 896.995, 677.658 896.989 C 679.321 896.968, 685 890.246, 685 888.299 C 685 887.205, 685.902 885.494, 687.005 884.496 C 689.006 882.685, 689.009 881.900, 688.755 466.591 L 688.500 50.500 686.088 46.133 C 682.808 40.197, 679.897 37.483, 673.623 34.515 L 668.307 32 601.904 32.036 L 535.500 32.072 532.666 34.286 M 2770.500 153.835 C 2768.850 154.839, 2766.348 155.950, 2764.939 156.302 C 2759.667 157.622, 2748 171.574, 2748 176.560 C 2748 177.497, 2747.052 179.798, 2745.893 181.673 C 2744.009 184.721, 2743.824 186.270, 2744.144 196.336 C 2744.417 204.921, 2744.916 208.223, 2746.251 210.260 C 2747.213 211.728, 2748 213.686, 2748 214.611 C 2748 219.010, 2763.862 236.943, 2767.790 236.986 C 2768.500 236.994, 2770.343 237.933, 2771.886 239.074 C 2774.471 240.985, 2776.004 241.142, 2791.463 241.083 C 2806.447 241.025, 2808.581 240.804, 2811.486 239.009 C 2813.273 237.904, 2815.583 236.994, 2816.618 236.986 C 2820.855 236.954, 2836.985 219.478, 2837.007 214.896 C 2837.010 214.128, 2837.907 212.150, 2839 210.500 C 2840.687 207.953, 2840.988 205.795, 2840.993 196.208 C 2841 185.701, 2840.788 184.462, 2837.944 178.380 C 2833.398 168.658, 2822.513 158.341, 2814.396 156.062 C 2812.253 155.460, 2809.626 154.300, 2808.559 153.484 C 2807.023 152.310, 2803.163 152.001, 2790.059 152.004 C 2775.788 152.007, 2773.085 152.260, 2770.500 153.835 M 1015.892 156.914 C 1012.808 157.350, 1009.755 158.034, 1009.106 158.434 C 1008.458 158.835, 1003.910 159.539, 998.999 160 C 993.717 160.496, 989.148 161.484, 987.812 162.419 C 986.571 163.288, 984.021 164, 982.146 164 C 980.270 164, 977.333 164.851, 975.618 165.892 C 973.903 166.933, 971.069 168.087, 969.319 168.456 C 967.570 168.826, 965.602 169.775, 964.947 170.564 C 964.291 171.354, 962.717 172, 961.449 172 C 960.181 172, 958.387 172.756, 957.463 173.680 C 955.625 175.518, 951.050 178.235, 946.750 180.041 C 945.237 180.676, 944 181.596, 944 182.084 C 944 182.573, 942.538 183.584, 940.750 184.332 C 933.743 187.260, 908 215.823, 908 220.668 C 908 221.230, 907.100 222.505, 906 223.500 C 904.900 224.495, 904 226.520, 904 228 C 904 229.480, 903.100 231.505, 902 232.500 C 900.892 233.503, 900 235.580, 900 237.159 C 900 238.725, 899.100 241.686, 898 243.739 C 896.686 246.191, 896 249.381, 896 253.044 C 896 256.397, 895.415 259.391, 894.532 260.559 C 892.512 263.229, 892.477 286.204, 894.480 294.500 C 895.277 297.800, 895.946 302.525, 895.968 305 C 895.992 307.676, 896.817 310.827, 898.004 312.774 C 899.102 314.575, 900 317.102, 900 318.389 C 900 319.677, 900.900 321.874, 902 323.273 C 903.100 324.671, 904 326.757, 904 327.908 C 904 329.058, 904.889 330.889, 905.975 331.975 C 907.061 333.061, 908.230 335.068, 908.573 336.435 C 909.748 341.116, 934.348 365, 937.995 365 C 938.493 365, 939.260 365.563, 939.700 366.250 C 940.862 368.065, 946.140 371.596, 949.019 372.483 C 950.384 372.904, 952.305 374.092, 953.289 375.124 C 954.273 376.156, 956.130 377, 957.417 377 C 958.703 377, 960.315 377.675, 961 378.500 C 961.685 379.325, 962.798 380, 963.474 380 C 964.149 380, 966.818 381.125, 969.404 382.500 C 971.990 383.875, 975.175 385, 976.481 385 C 977.788 385, 979.577 385.719, 980.456 386.599 C 981.335 387.478, 983.955 388.437, 986.277 388.730 C 988.600 389.023, 991.208 389.877, 992.073 390.626 C 992.938 391.376, 995.785 392.283, 998.399 392.641 C 1001.012 392.999, 1004.787 394.127, 1006.787 395.146 C 1008.787 396.166, 1011.803 397, 1013.489 397 C 1015.175 397, 1017.548 397.695, 1018.761 398.545 C 1019.974 399.395, 1023.337 400.349, 1026.234 400.664 C 1029.130 400.980, 1032.509 401.868, 1033.742 402.637 C 1034.976 403.407, 1038.126 404.322, 1040.742 404.671 C 1043.359 405.021, 1047.068 406.138, 1048.985 407.153 C 1050.902 408.169, 1053.716 409, 1055.239 409 C 1056.761 409, 1059.686 409.900, 1061.739 411 C 1063.791 412.100, 1066.266 413, 1067.239 413 C 1068.211 413, 1070.686 413.900, 1072.739 415 C 1074.791 416.100, 1077.306 417, 1078.327 417 C 1079.349 417, 1081.329 417.900, 1082.727 419 C 1084.126 420.100, 1086.054 421, 1087.012 421 C 1087.971 421, 1089.301 421.658, 1089.968 422.461 C 1090.635 423.265, 1091.981 424.176, 1092.959 424.487 C 1095.579 425.318, 1104.459 433.173, 1110.506 440.008 C 1111.240 440.838, 1112.146 442.732, 1112.518 444.217 C 1112.891 445.703, 1113.827 447.442, 1114.598 448.081 C 1115.369 448.721, 1116 450.163, 1116 451.286 C 1116 452.409, 1116.751 457.245, 1117.669 462.032 C 1119.227 470.161, 1119.227 471.131, 1117.669 476.684 C 1116.751 479.955, 1116 483.739, 1116 485.093 C 1116 486.448, 1115.100 488.326, 1114 489.268 C 1112.900 490.210, 1112 491.735, 1112 492.656 C 1112 494.459, 1111.719 494.804, 1103.789 502.750 C 1100.907 505.637, 1098.037 508, 1097.410 508 C 1096.783 508, 1095.161 508.872, 1093.806 509.938 C 1092.451 511.004, 1090.159 512.173, 1088.712 512.536 C 1087.266 512.899, 1085.558 513.827, 1084.919 514.598 C 1084.279 515.369, 1082.674 516, 1081.353 516 C 1080.031 516, 1076.374 516.915, 1073.225 518.033 C 1068.142 519.837, 1065.069 520.065, 1045.810 520.067 C 1025.907 520.068, 1023.808 519.901, 1020.325 518.034 C 1018.238 516.915, 1014.846 516, 1012.789 516 C 1010.732 516, 1007.575 515.102, 1005.774 514.004 C 1003.973 512.906, 1001.487 512.006, 1000.250 512.004 C 999.013 512.002, 997.100 511.100, 996 510 C 994.900 508.900, 993.127 508, 992.059 508 C 990.991 508, 989.829 507.532, 989.475 506.959 C 989.121 506.387, 987.182 504.869, 985.166 503.586 C 979.163 499.766, 968 487.345, 968 484.485 C 968 483.803, 967.325 482.685, 966.500 482 C 965.675 481.315, 965 480.016, 965 479.113 C 965 478.209, 964.168 475.902, 963.151 473.985 C 962.134 472.068, 961.031 467.810, 960.700 464.522 C 960.296 460.519, 959.523 458.124, 958.358 457.272 C 955.920 455.490, 886.979 455.421, 885.200 457.200 C 883.514 458.886, 883.707 467.549, 885.575 474.032 C 886.442 477.039, 887.503 482.258, 887.934 485.629 C 888.364 488.999, 889.455 492.812, 890.358 494.101 C 891.261 495.390, 892 497.524, 892 498.842 C 892 501.979, 900.694 519.945, 902.558 520.661 C 903.351 520.965, 904 521.704, 904 522.303 C 904 525.790, 928.991 553, 932.194 553 C 933.017 553, 934.505 553.900, 935.500 555 C 936.495 556.100, 937.929 557, 938.686 557 C 939.443 557, 940.315 557.658, 940.624 558.462 C 940.932 559.266, 942.156 560.228, 943.342 560.599 C 944.529 560.971, 946.573 562.113, 947.885 563.138 C 949.197 564.162, 951.040 565, 951.982 565 C 952.924 565, 954.732 565.900, 956 567 C 957.268 568.100, 959.307 569, 960.531 569 C 961.754 569, 963.305 569.663, 963.978 570.474 C 964.651 571.284, 966.843 572.229, 968.850 572.574 C 970.858 572.919, 974.330 574.056, 976.566 575.101 C 978.802 576.145, 982.015 577, 983.707 577 C 985.398 577, 988.743 577.890, 991.141 578.978 C 993.538 580.066, 997.581 580.966, 1000.124 580.978 C 1002.668 580.990, 1006.718 581.763, 1009.124 582.696 C 1015.604 585.208, 1070.801 585.317, 1079 582.834 C 1082.025 581.918, 1086.935 580.881, 1089.911 580.529 C 1092.886 580.177, 1096.249 579.239, 1097.383 578.444 C 1098.517 577.650, 1100.600 577, 1102.011 577 C 1103.422 577, 1106.242 576.151, 1108.278 575.113 C 1110.313 574.076, 1113.513 572.939, 1115.389 572.587 C 1117.264 572.235, 1119.349 571.284, 1120.022 570.474 C 1120.695 569.663, 1122.297 569, 1123.583 569 C 1124.870 569, 1126.727 568.156, 1127.711 567.124 C 1128.695 566.092, 1130.600 564.909, 1131.944 564.495 C 1133.287 564.081, 1136.545 562.225, 1139.183 560.371 C 1141.821 558.517, 1144.446 557, 1145.015 557 C 1146.430 557, 1171.760 532.116, 1173.518 529 C 1174.293 527.625, 1175.625 525.038, 1176.477 523.250 C 1177.330 521.462, 1178.462 520, 1178.994 520 C 1179.527 520, 1180.264 518.763, 1180.633 517.250 C 1181.003 515.737, 1182.136 513.427, 1183.152 512.115 C 1184.169 510.803, 1185 508.902, 1185 507.889 C 1185 506.877, 1185.898 504.575, 1186.996 502.774 C 1188.094 500.973, 1188.994 497.913, 1188.996 495.973 C 1188.998 494.032, 1189.787 491.332, 1190.750 489.973 C 1192.312 487.765, 1192.500 484.606, 1192.500 460.500 C 1192.500 436.672, 1192.294 433.124, 1190.750 430.300 C 1189.787 428.539, 1189 425.563, 1189 423.685 C 1189 421.784, 1188.113 419.142, 1187 417.727 C 1185.900 416.329, 1185 414.088, 1185 412.747 C 1185 411.407, 1184.100 409.495, 1183 408.500 C 1181.900 407.505, 1181 405.661, 1181 404.404 C 1181 403.147, 1180.561 401.847, 1180.024 401.515 C 1179.488 401.183, 1177.364 398.344, 1175.305 395.206 C 1169.035 385.650, 1149.990 368, 1145.950 368 C 1145.427 368, 1145 367.527, 1145 366.949 C 1145 366.371, 1143.502 365.272, 1141.670 364.507 C 1139.839 363.742, 1137.759 362.415, 1137.048 361.558 C 1136.337 360.701, 1134.754 360, 1133.531 360 C 1132.307 360, 1130.268 359.100, 1129 358 C 1127.732 356.900, 1125.693 356, 1124.469 356 C 1123.246 356, 1121.695 355.337, 1121.022 354.526 C 1120.349 353.716, 1118.157 352.761, 1116.150 352.405 C 1114.142 352.048, 1111.097 350.911, 1109.382 349.878 C 1107.667 348.845, 1105.263 348, 1104.040 348 C 1102.816 348, 1100.671 347.100, 1099.273 346 C 1097.874 344.900, 1095.311 344, 1093.577 344 C 1091.842 344, 1088.658 343.100, 1086.500 342 C 1084.342 340.900, 1081.435 339.985, 1080.039 339.966 C 1078.642 339.947, 1075.700 339.063, 1073.500 338 C 1071.300 336.937, 1068.015 336.053, 1066.200 336.034 C 1064.386 336.015, 1061.549 335.301, 1059.897 334.447 C 1058.244 333.592, 1054.630 332.625, 1051.866 332.298 C 1049.101 331.970, 1045.205 330.869, 1043.208 329.851 C 1041.211 328.833, 1038.096 328, 1036.285 328 C 1034.474 328, 1031.314 327.100, 1029.261 326 C 1027.209 324.900, 1024.284 324, 1022.761 324 C 1021.239 324, 1018.314 323.100, 1016.261 322 C 1014.209 320.900, 1011.848 320.001, 1011.015 320.003 C 1009.698 320.005, 1003.646 317.415, 999 314.861 C 998.175 314.408, 995.134 312.869, 992.243 311.442 C 989.351 310.015, 984.940 306.745, 982.440 304.174 C 977.986 299.594, 973 291.888, 973 289.585 C 973 288.946, 972.100 286.658, 971 284.500 C 969.354 281.271, 969 278.603, 969 269.411 C 969 261.078, 969.354 257.951, 970.395 257.087 C 971.163 256.450, 972.085 254.359, 972.445 252.441 C 973.342 247.662, 978.355 240.524, 983.351 236.912 C 991.063 231.336, 995.081 229, 996.962 229 C 997.991 229, 1001.009 228.033, 1003.667 226.851 C 1008.180 224.845, 1010.090 224.704, 1032.500 224.721 C 1054.644 224.738, 1056.909 224.904, 1061.787 226.870 C 1064.695 228.041, 1068.449 229, 1070.129 229 C 1071.810 229, 1074.329 229.900, 1075.727 231 C 1077.126 232.100, 1078.902 233, 1079.675 233 C 1082.812 233, 1099.228 247.768, 1100.418 251.660 C 1100.780 252.848, 1101.735 254.365, 1102.539 255.032 C 1103.342 255.699, 1104 257.108, 1104 258.162 C 1104 259.217, 1104.840 261.749, 1105.868 263.790 C 1106.944 265.928, 1107.949 270.601, 1108.239 274.822 C 1108.516 278.848, 1109.192 282.592, 1109.740 283.140 C 1110.769 284.169, 1182.496 284.430, 1184.145 283.411 C 1185.692 282.454, 1185.038 270.507, 1183.024 262.932 C 1181.936 258.845, 1181.027 254.150, 1181.002 252.500 C 1180.977 250.850, 1180.136 247.695, 1179.134 245.490 C 1178.132 243.284, 1177.005 239.842, 1176.630 237.840 C 1176.254 235.839, 1175.284 233.651, 1174.474 232.978 C 1173.663 232.305, 1173 230.746, 1173 229.512 C 1173 228.279, 1172.100 226.126, 1171 224.727 C 1169.900 223.329, 1169 221.538, 1169 220.747 C 1169 219.957, 1168.111 218.506, 1167.026 217.523 C 1165.940 216.540, 1164.760 214.783, 1164.404 213.618 C 1164.047 212.453, 1162.170 209.475, 1160.230 207 C 1156.255 201.926, 1142.064 188, 1140.869 188 C 1139.861 188, 1133.628 183.771, 1131.501 181.644 C 1130.597 180.740, 1129.398 180, 1128.836 180 C 1128.275 180, 1126.671 179.100, 1125.273 178 C 1123.874 176.900, 1121.946 176, 1120.988 176 C 1120.029 176, 1118.681 175.321, 1117.993 174.491 C 1117.304 173.661, 1114.960 172.697, 1112.784 172.350 C 1110.609 172.002, 1108.599 171.118, 1108.318 170.386 C 1108.037 169.653, 1106.163 168.789, 1104.153 168.464 C 1102.144 168.140, 1098.651 167.003, 1096.390 165.937 C 1094.130 164.872, 1090.852 164, 1089.105 164 C 1087.359 164, 1084.838 163.285, 1083.503 162.410 C 1082.083 161.479, 1077.227 160.458, 1071.789 159.945 C 1066.680 159.463, 1060.700 158.587, 1058.500 157.997 C 1053.415 156.635, 1023.296 155.870, 1015.892 156.914 M 1920.229 160.837 C 1918.372 162.016, 1918.393 574.997, 1920.250 576.175 C 1920.937 576.612, 1937.314 576.976, 1956.643 576.985 C 1987.775 576.998, 1991.855 576.819, 1992.393 575.418 C 1992.727 574.548, 1993 481.263, 1993 368.118 C 1993 209.448, 1992.726 162.126, 1991.800 161.200 C 1990.405 159.805, 1922.398 159.461, 1920.229 160.837 M 2393.200 161.200 C 2391.454 162.946, 2391.454 574.054, 2393.200 575.800 C 2394.778 577.378, 2463.152 577.524, 2466.081 575.956 C 2467.903 574.982, 2468.021 573.841, 2467.868 558.706 C 2467.779 549.793, 2467.244 541.475, 2466.680 540.223 C 2465.482 537.563, 2466.814 535.608, 2469.201 536.524 C 2470.045 536.848, 2472.247 539.444, 2474.093 542.293 C 2479.040 549.928, 2488.863 559.066, 2497.971 564.506 C 2498.897 565.060, 2500.440 566.297, 2501.399 567.256 C 2502.358 568.215, 2503.827 569, 2504.664 569 C 2505.500 569, 2507.329 569.900, 2508.727 571 C 2510.126 572.100, 2511.926 573, 2512.727 573 C 2513.529 573, 2515.329 573.900, 2516.727 575 C 2518.126 576.100, 2520.411 577, 2521.806 577 C 2523.201 577, 2525.143 577.725, 2526.122 578.610 C 2527.150 579.541, 2530.798 580.539, 2534.761 580.974 C 2538.534 581.388, 2542.719 582.351, 2544.061 583.113 C 2547.519 585.079, 2580.452 585.096, 2583.900 583.134 C 2585.220 582.383, 2589.191 581.410, 2592.725 580.972 C 2596.258 580.534, 2599.938 579.461, 2600.903 578.588 C 2601.868 577.714, 2604.024 577, 2605.694 577 C 2607.364 577, 2609.874 576.100, 2611.273 575 C 2612.671 573.900, 2614.696 573, 2615.773 573 C 2616.849 573, 2618.839 572.128, 2620.194 571.062 C 2621.549 569.996, 2623.860 568.822, 2625.329 568.454 C 2626.798 568.085, 2628 567.415, 2628 566.965 C 2628 566.515, 2630.363 564.791, 2633.250 563.134 C 2640.975 558.700, 2658.334 542.442, 2667.026 531.500 C 2674.156 522.524, 2685 503.497, 2685 499.963 C 2685 499.018, 2685.663 497.695, 2686.474 497.022 C 2687.284 496.349, 2688.234 494.157, 2688.586 492.150 C 2688.937 490.142, 2689.854 487.495, 2690.624 486.268 C 2691.393 485.040, 2692.427 481.440, 2692.922 478.268 C 2693.416 475.095, 2694.478 470.700, 2695.282 468.500 C 2696.733 464.526, 2698.458 440.552, 2698.446 424.500 C 2698.435 409.241, 2696.402 387.674, 2694.656 384.300 C 2693.745 382.539, 2693 379.383, 2693 377.285 C 2693 375.187, 2692.100 371.791, 2691 369.739 C 2689.900 367.686, 2688.997 364.993, 2688.993 363.754 C 2688.990 362.514, 2688.093 360.150, 2687 358.500 C 2685.907 356.850, 2685.010 354.483, 2685.007 353.240 C 2685.003 351.997, 2684.100 350.210, 2683 349.268 C 2681.900 348.326, 2681 346.548, 2681 345.317 C 2681 344.085, 2680.156 342.273, 2679.124 341.289 C 2678.092 340.305, 2676.905 338.375, 2676.487 337 C 2676.068 335.625, 2674.999 333.540, 2674.112 332.366 C 2672.388 330.084, 2671.660 329.012, 2667.066 322 C 2664.073 317.432, 2645.063 297.554, 2641.465 295.231 C 2640.384 294.533, 2637.523 292.733, 2635.107 291.231 C 2632.691 289.729, 2629.588 287.488, 2628.211 286.250 C 2626.834 285.012, 2625.057 284, 2624.262 284 C 2623.466 284, 2621.671 283.100, 2620.273 282 C 2618.874 280.900, 2616.766 280, 2615.587 280 C 2614.409 280, 2612.674 279.100, 2611.732 278 C 2610.664 276.753, 2608.782 276, 2606.732 276 C 2604.924 276, 2602.493 275.333, 2601.329 274.518 C 2600.165 273.703, 2595.678 272.626, 2591.357 272.125 C 2587.035 271.624, 2582.233 270.715, 2580.685 270.107 C 2576.618 268.508, 2558.497 268.756, 2552 270.500 C 2548.975 271.312, 2544.734 271.982, 2542.575 271.988 C 2538.897 271.999, 2527.253 275.410, 2520.500 278.454 C 2518.850 279.198, 2516.375 280.309, 2515 280.923 C 2513.625 281.537, 2510.700 283.134, 2508.500 284.472 C 2506.300 285.809, 2503.375 287.473, 2502 288.169 C 2494.625 291.902, 2474.723 311.026, 2472.381 316.629 C 2471.248 319.342, 2470.423 320.058, 2468.710 319.814 C 2466.831 319.547, 2466.551 318.976, 2466.844 316 C 2467.033 314.075, 2467.388 278.757, 2467.633 237.516 C 2468.051 167.272, 2467.970 162.451, 2466.349 161.266 C 2463.919 159.489, 2394.973 159.427, 2393.200 161.200 M 584.616 256.776 C 583.827 258.302, 581.537 261.340, 579.528 263.526 C 572.046 271.668, 568.445 275.828, 566.500 278.578 C 563.379 282.989, 556.397 290.793, 548.097 299.146 C 537.874 309.436, 522.897 325.583, 519.018 330.500 C 517.282 332.700, 511.691 338.775, 506.594 344 C 501.496 349.225, 497.033 354.309, 496.676 355.298 C 496.318 356.287, 496.008 456.637, 495.987 578.298 L 495.947 799.500 542.640 799.500 L 589.333 799.500 589.137 527.607 C 589.029 378.066, 588.703 255.328, 588.411 254.857 C 587.438 253.281, 586.064 253.975, 584.616 256.776 M 1379.500 270.101 C 1376.750 270.560, 1370.102 271.382, 1364.726 271.928 C 1359.038 272.505, 1354.033 273.564, 1352.754 274.460 C 1351.544 275.307, 1348.743 276.003, 1346.527 276.007 C 1344.192 276.010, 1341.240 276.848, 1339.500 278 C 1337.850 279.093, 1335.855 279.990, 1335.066 279.993 C 1333.781 279.999, 1330.780 281.211, 1323 284.865 C 1321.625 285.511, 1318.700 287.133, 1316.500 288.468 C 1314.300 289.804, 1311.481 291.362, 1310.236 291.929 C 1306.977 293.415, 1302.110 297.001, 1298.266 300.750 C 1296.433 302.538, 1294.518 304, 1294.011 304 C 1292.912 304, 1277.365 319.483, 1274.500 323.430 C 1273.400 324.945, 1271.742 326.936, 1270.817 327.855 C 1269.051 329.606, 1264.933 335.438, 1263.654 338 C 1263.242 338.825, 1261.831 341.300, 1260.519 343.500 C 1255.634 351.693, 1252 359.387, 1252 361.537 C 1252 362.757, 1251.337 364.305, 1250.526 364.978 C 1249.716 365.651, 1248.788 367.843, 1248.464 369.850 C 1248.140 371.858, 1247.003 375.349, 1245.937 377.610 C 1244.872 379.870, 1244 383.830, 1244 386.409 C 1244 388.990, 1243.213 392.539, 1242.250 394.300 C 1240.699 397.136, 1240.500 400.743, 1240.500 426 C 1240.500 450.849, 1240.724 455.047, 1242.250 458.770 C 1243.213 461.119, 1244 465.176, 1244 467.785 C 1244 470.619, 1244.805 474.032, 1246 476.261 C 1247.100 478.314, 1248 481.500, 1248 483.341 C 1248 485.420, 1248.759 487.376, 1250 488.500 C 1251.100 489.495, 1252 491.530, 1252 493.020 C 1252 494.511, 1252.838 496.803, 1253.862 498.115 C 1254.887 499.427, 1256.061 501.573, 1256.472 502.884 C 1256.883 504.195, 1258.745 507.871, 1260.610 511.052 C 1262.474 514.234, 1264 517.242, 1264 517.738 C 1264 518.234, 1265.013 519.605, 1266.250 520.786 C 1270.360 524.707, 1271.740 526.479, 1272.431 528.720 C 1273.328 531.627, 1292.219 550.654, 1298 554.472 C 1300.475 556.107, 1303.706 558.414, 1305.181 559.599 C 1306.656 560.785, 1309.918 562.750, 1312.431 563.967 C 1314.944 565.183, 1317 566.568, 1317 567.044 C 1317 567.520, 1318.559 568.202, 1320.464 568.559 C 1322.370 568.917, 1324.426 569.808, 1325.033 570.540 C 1325.641 571.272, 1327.570 572.185, 1329.319 572.569 C 1331.069 572.953, 1334.068 574.107, 1335.985 575.133 C 1337.902 576.160, 1340.716 577, 1342.239 577 C 1343.761 577, 1346.686 577.900, 1348.739 579 C 1351.084 580.257, 1354.381 581, 1357.613 581 C 1360.442 581, 1364.498 581.786, 1366.628 582.747 C 1372.220 585.270, 1414.223 585.211, 1420.876 582.671 C 1423.282 581.752, 1427.350 581, 1429.914 581 C 1432.603 581, 1436.238 580.153, 1438.500 579 C 1440.658 577.900, 1443.842 577, 1445.577 577 C 1447.311 577, 1449.874 576.100, 1451.273 575 C 1452.671 573.900, 1454.921 573, 1456.273 573 C 1457.624 573, 1459.874 572.100, 1461.273 571 C 1462.671 569.900, 1464.471 569, 1465.273 569 C 1466.074 569, 1467.874 568.100, 1469.273 567 C 1470.671 565.900, 1472.536 565, 1473.418 565 C 1474.299 565, 1475.790 564.100, 1476.732 563 C 1477.674 561.900, 1479.132 561, 1479.973 561 C 1480.813 561, 1483.372 559.290, 1485.658 557.200 C 1487.944 555.110, 1491.666 552.118, 1493.928 550.550 C 1500.894 545.722, 1518.853 525.299, 1520.792 520 C 1521.093 519.175, 1522.164 517.427, 1523.170 516.115 C 1524.177 514.803, 1525 512.961, 1525 512.020 C 1525 511.080, 1525.900 509.495, 1527 508.500 C 1528.100 507.505, 1529 505.818, 1529 504.753 C 1529 503.687, 1529.900 501.671, 1531 500.273 C 1532.100 498.874, 1533 496.439, 1533 494.862 C 1533 493.284, 1533.900 490.314, 1535 488.261 C 1536.165 486.088, 1537 482.619, 1537 479.956 C 1537 477.440, 1537.661 474.509, 1538.468 473.441 C 1540.136 471.236, 1540.439 468.389, 1539.094 467.558 C 1538.596 467.250, 1520.977 466.943, 1499.941 466.876 L 1461.694 466.754 1459.868 469.127 C 1458.863 470.432, 1457.545 473.075, 1456.938 475 C 1454.591 482.444, 1451.239 487.696, 1444.500 494.488 C 1436.862 502.186, 1428.939 508, 1426.085 508 C 1425.086 508, 1423.126 508.900, 1421.727 510 C 1420.329 511.100, 1417.865 512, 1416.251 512 C 1414.638 512, 1411.109 512.670, 1408.409 513.489 C 1402.070 515.412, 1387.702 515.418, 1380.339 513.500 C 1377.171 512.675, 1373.283 512, 1371.698 512 C 1370.112 512, 1367.671 511.100, 1366.273 510 C 1364.874 508.900, 1362.721 508, 1361.488 508 C 1360.254 508, 1358.692 507.334, 1358.017 506.521 C 1357.342 505.707, 1355.599 504.419, 1354.145 503.657 C 1347.833 500.353, 1346.256 499.308, 1342.594 496 C 1335.069 489.203, 1332.969 486.389, 1328.689 477.372 C 1327.872 475.652, 1326.708 473.938, 1326.102 473.563 C 1325.496 473.188, 1325 472.114, 1325 471.176 C 1325 470.238, 1324.163 467.902, 1323.140 465.985 C 1322.117 464.068, 1320.956 459.880, 1320.559 456.679 C 1320.163 453.477, 1319.200 449.329, 1318.419 447.461 C 1317.374 444.959, 1317 439.371, 1317 426.247 C 1317 410.994, 1317.288 407.612, 1319 402.740 C 1320.100 399.611, 1321 395.519, 1321 393.647 C 1321 391.776, 1321.646 389.709, 1322.436 389.053 C 1323.225 388.398, 1324.182 386.448, 1324.561 384.721 C 1326.568 375.586, 1342.074 354.381, 1348.161 352.449 C 1349.385 352.060, 1352.545 350.225, 1355.183 348.371 C 1357.821 346.517, 1360.772 344.998, 1361.740 344.996 C 1362.708 344.994, 1364.878 344.152, 1366.562 343.126 C 1371.292 340.241, 1394.587 338.250, 1405.369 339.809 C 1409.898 340.464, 1414.930 341.003, 1416.552 341.007 C 1418.173 341.010, 1420.850 341.907, 1422.500 343 C 1424.150 344.093, 1426.443 344.990, 1427.595 344.993 C 1428.747 344.997, 1430.505 345.900, 1431.500 347 C 1432.495 348.100, 1433.803 349, 1434.405 349 C 1436.282 349.001, 1451.861 365.599, 1452.546 368.328 C 1452.904 369.753, 1453.827 371.442, 1454.598 372.081 C 1455.369 372.721, 1456 374.479, 1456 375.988 C 1456 377.496, 1456.900 379.874, 1458 381.273 C 1459.100 382.671, 1460 384.495, 1460 385.326 C 1460 390.169, 1458.545 390, 1500.138 390 C 1544.193 390, 1541.719 390.517, 1538.673 381.943 C 1537.753 379.352, 1537 375.935, 1537 374.351 C 1537 372.767, 1536.166 369.902, 1535.147 367.985 C 1534.127 366.068, 1532.990 362.858, 1532.620 360.850 C 1532.250 358.843, 1531.284 356.651, 1530.474 355.978 C 1529.663 355.305, 1529 354.207, 1529 353.537 C 1529 352.867, 1527.537 349.516, 1525.750 346.090 C 1523.963 342.663, 1521.812 338.538, 1520.972 336.923 C 1520.131 335.308, 1518.025 332.302, 1516.292 330.243 C 1514.559 328.185, 1510.485 323.125, 1507.241 319 C 1501.028 311.102, 1497.683 307.957, 1485.977 299 C 1479.314 293.902, 1476.567 292.155, 1470 288.841 C 1468.625 288.147, 1466.427 286.774, 1465.115 285.790 C 1463.803 284.805, 1461.960 284, 1461.018 284 C 1460.076 284, 1458.268 283.100, 1457 282 C 1455.732 280.900, 1453.513 280, 1452.069 280 C 1450.626 280, 1448.475 279.321, 1447.289 278.490 C 1446.104 277.660, 1442.966 276.706, 1440.317 276.370 C 1437.668 276.035, 1434.454 275.107, 1433.175 274.308 C 1431.817 273.460, 1426.206 272.478, 1419.675 271.948 C 1413.529 271.448, 1406.700 270.591, 1404.500 270.043 C 1399.818 268.878, 1386.651 268.908, 1379.500 270.101 M 1707.500 270.110 C 1704.200 270.577, 1697.167 271.373, 1691.871 271.879 C 1686.575 272.386, 1681.175 273.379, 1679.871 274.087 C 1678.567 274.795, 1675.097 275.707, 1672.161 276.113 C 1669.224 276.519, 1666.039 277.560, 1665.082 278.426 C 1664.125 279.292, 1662.407 280, 1661.264 280 C 1659.454 280, 1651.474 283.415, 1647 286.103 C 1646.175 286.599, 1644.512 287.433, 1643.304 287.957 C 1642.097 288.481, 1638.839 290.505, 1636.065 292.455 C 1633.290 294.405, 1630.770 296, 1630.463 296 C 1629.429 296, 1612.400 313.456, 1608.183 318.840 C 1605.882 321.777, 1604 324.792, 1604 325.540 C 1604 326.288, 1603.426 327.260, 1602.725 327.700 C 1601.092 328.724, 1596.002 338.662, 1595.993 340.842 C 1595.990 341.754, 1595.093 343.850, 1594 345.500 C 1592.898 347.164, 1592.010 350.192, 1592.007 352.300 C 1592.003 354.389, 1591.382 357.314, 1590.627 358.800 C 1588.969 362.063, 1587.653 371.931, 1588.560 374.297 C 1589.159 375.856, 1592.162 376, 1624.072 376 C 1657.511 376, 1658.972 375.921, 1659.965 374.066 C 1660.534 373.002, 1661 371.160, 1661 369.973 C 1661 368.787, 1661.900 366.671, 1663 365.273 C 1664.100 363.874, 1665 361.652, 1665 360.334 C 1665 359.016, 1665.634 357.694, 1666.408 357.397 C 1667.183 357.100, 1668.331 355.615, 1668.960 354.097 C 1669.588 352.579, 1672.217 349.595, 1674.801 347.464 C 1677.386 345.334, 1679.860 343.008, 1680.300 342.295 C 1680.740 341.583, 1681.691 341, 1682.415 341 C 1683.138 341, 1684.803 340.169, 1686.115 339.152 C 1687.427 338.136, 1689.850 336.976, 1691.500 336.575 C 1693.150 336.173, 1695.175 335.269, 1696 334.566 C 1696.825 333.862, 1702.811 332.738, 1709.303 332.066 C 1718.622 331.102, 1723.462 331.104, 1732.303 332.077 C 1738.461 332.755, 1744.175 333.865, 1745 334.543 C 1745.825 335.222, 1748.057 336.109, 1749.960 336.514 C 1751.864 336.920, 1754.753 338.207, 1756.381 339.376 C 1762.087 343.471, 1771.968 354.025, 1772.646 356.749 C 1773.023 358.262, 1773.878 359.950, 1774.546 360.500 C 1775.214 361.050, 1776.034 364.333, 1776.370 367.796 C 1776.705 371.259, 1777.387 374.859, 1777.885 375.796 C 1778.384 376.733, 1779.113 380.950, 1779.505 385.168 L 1780.220 392.835 1777.020 394.490 C 1775.259 395.400, 1773.298 395.949, 1772.660 395.710 C 1770.513 394.906, 1719.541 396.929, 1715.500 397.979 C 1713.300 398.550, 1704.975 399.440, 1697 399.956 C 1688.840 400.485, 1680.751 401.555, 1678.500 402.404 C 1676.300 403.233, 1672.250 403.942, 1669.500 403.978 C 1666.750 404.014, 1662.538 404.934, 1660.141 406.022 C 1657.743 407.110, 1654.430 408, 1652.777 408 C 1651.124 408, 1648.136 408.869, 1646.136 409.931 C 1644.136 410.993, 1640.858 412.129, 1638.850 412.457 C 1636.843 412.785, 1634.651 413.716, 1633.978 414.526 C 1633.305 415.337, 1632.114 416, 1631.331 416 C 1627.651 416, 1613.062 425.861, 1605.500 433.460 C 1598.069 440.929, 1592 448.542, 1592 450.396 C 1592 450.830, 1591.100 452.329, 1590 453.727 C 1588.900 455.126, 1588 457.186, 1588 458.306 C 1588 459.426, 1587.297 461.119, 1586.439 462.068 C 1585.580 463.017, 1584.485 466.570, 1584.005 469.964 C 1583.525 473.358, 1582.540 476.849, 1581.816 477.721 C 1580.848 478.887, 1580.500 483.562, 1580.500 495.403 C 1580.500 508.848, 1580.788 512.027, 1582.250 514.700 C 1583.213 516.461, 1584 519.437, 1584 521.315 C 1584 523.216, 1584.887 525.858, 1586 527.273 C 1587.100 528.671, 1588 530.471, 1588 531.273 C 1588 532.074, 1588.787 533.809, 1589.750 535.127 C 1592.433 538.800, 1593.907 541.220, 1595.463 544.500 C 1597.440 548.671, 1612.457 562.977, 1618.500 566.447 C 1621.250 568.027, 1624.573 570.147, 1625.885 571.159 C 1627.197 572.172, 1629.054 573, 1630.012 573 C 1630.971 573, 1632.291 573.646, 1632.947 574.436 C 1633.602 575.225, 1635.570 576.185, 1637.319 576.569 C 1639.069 576.953, 1642.068 578.107, 1643.985 579.133 C 1645.902 580.160, 1648.962 581, 1650.785 581 C 1652.608 581, 1655.539 581.784, 1657.300 582.743 C 1660.066 584.250, 1663.480 584.487, 1682.500 584.493 C 1701.170 584.499, 1705.146 584.235, 1708.770 582.750 C 1711.119 581.787, 1714.670 581, 1716.661 581 C 1718.652 581, 1722.130 580.128, 1724.390 579.063 C 1726.651 577.997, 1730.144 576.860, 1732.153 576.536 C 1734.163 576.211, 1736.061 575.283, 1736.372 574.473 C 1736.689 573.648, 1738.203 573, 1739.814 573 C 1741.420 573, 1743.489 572.117, 1744.500 571 C 1745.495 569.900, 1746.889 569, 1747.596 569 C 1750.474 569, 1773 549.724, 1773 547.260 C 1773 546.533, 1773.658 545.685, 1774.462 545.376 C 1775.266 545.068, 1776.196 543.957, 1776.529 542.908 C 1776.862 541.858, 1777.769 541, 1778.544 541 C 1779.694 541, 1780.004 544.274, 1780.227 558.750 L 1780.500 576.500 1815.382 576.763 C 1835.791 576.917, 1850.727 576.641, 1851.382 576.098 C 1853.093 574.678, 1852.958 376.774, 1851.242 372 C 1850.550 370.075, 1849.706 364.675, 1849.365 360 C 1848.956 354.383, 1848.110 350.442, 1846.873 348.382 C 1845.843 346.667, 1845 344.466, 1845 343.491 C 1845 342.517, 1844.151 339.870, 1843.114 337.610 C 1842.076 335.349, 1840.717 332.375, 1840.094 331 C 1839.470 329.625, 1837.866 326.700, 1836.528 324.500 C 1835.190 322.300, 1833.771 319.825, 1833.375 319 C 1832.520 317.220, 1831.210 315.741, 1822.276 306.466 C 1813.441 297.294, 1801.958 288, 1799.461 288 C 1798.828 288, 1797.495 287.100, 1796.500 286 C 1795.505 284.900, 1793.818 284, 1792.753 284 C 1791.687 284, 1789.671 283.100, 1788.273 282 C 1786.874 280.900, 1784.589 280, 1783.194 280 C 1781.799 280, 1779.820 279.243, 1778.797 278.317 C 1777.774 277.391, 1774.814 276.309, 1772.219 275.912 C 1769.623 275.516, 1765.700 274.493, 1763.500 273.639 C 1761.300 272.786, 1756.800 272.052, 1753.500 272.008 C 1750.200 271.965, 1744.800 271.277, 1741.500 270.480 C 1734.956 268.900, 1717.414 268.709, 1707.500 270.110 M 2181 270.108 C 2178.525 270.580, 2172.408 271.376, 2167.406 271.877 C 2162.404 272.377, 2156.914 273.510, 2155.206 274.394 C 2153.497 275.277, 2150.563 276, 2148.685 276 C 2146.784 276, 2144.142 276.887, 2142.727 278 C 2141.329 279.100, 2138.863 280, 2137.247 280 C 2135.580 280, 2133.527 280.865, 2132.500 282 C 2131.505 283.100, 2129.705 284, 2128.500 284 C 2127.295 284, 2125.495 284.900, 2124.500 286 C 2123.505 287.100, 2121.855 288, 2120.835 288 C 2119.815 288, 2118.210 288.900, 2117.268 290 C 2116.326 291.100, 2115.068 292, 2114.472 292 C 2111.279 292, 2094.157 307.175, 2081 321.668 C 2077.891 325.092, 2072.808 332.107, 2067.808 339.873 C 2064.973 344.277, 2060 354.245, 2060 355.525 C 2060 356.188, 2059.100 357.874, 2058 359.273 C 2056.900 360.671, 2056 362.746, 2056 363.884 C 2056 365.021, 2055.102 367.425, 2054.004 369.226 C 2052.906 371.027, 2052.006 373.688, 2052.004 375.141 C 2052.002 376.593, 2051.110 379.743, 2050.022 382.141 C 2048.934 384.538, 2048.034 388.397, 2048.022 390.715 C 2048.010 393.033, 2047.213 397.083, 2046.250 399.715 C 2043.685 406.728, 2043.706 448.340, 2046.278 454.876 C 2047.225 457.282, 2048.010 461.332, 2048.022 463.876 C 2048.034 466.419, 2048.934 470.462, 2050.022 472.859 C 2051.110 475.257, 2052 478.199, 2052 479.398 C 2052 480.596, 2052.900 483.342, 2054 485.500 C 2055.100 487.658, 2056 490.167, 2056 491.077 C 2056 491.986, 2056.900 493.874, 2058 495.273 C 2059.100 496.671, 2060 498.761, 2060 499.918 C 2060 501.074, 2060.900 502.790, 2062 503.732 C 2063.100 504.674, 2064 506.184, 2064 507.087 C 2064 507.991, 2064.891 509.863, 2065.980 511.247 C 2067.069 512.632, 2068.438 514.830, 2069.023 516.132 C 2070.836 520.170, 2072.860 523.422, 2074.222 524.483 C 2074.940 525.042, 2076.325 526.746, 2077.299 528.269 C 2082.258 536.019, 2109.675 561, 2113.223 561 C 2113.839 561, 2115.097 561.683, 2116.020 562.518 C 2118.415 564.685, 2134.951 572.999, 2136.882 573.007 C 2137.772 573.010, 2139.850 573.907, 2141.500 575 C 2143.150 576.093, 2145.978 576.990, 2147.785 576.993 C 2149.592 576.997, 2152.098 577.673, 2153.354 578.496 C 2154.610 579.319, 2158.532 580.251, 2162.069 580.567 C 2165.606 580.883, 2170.525 581.886, 2173 582.796 C 2178.806 584.932, 2212.149 585.265, 2215.729 583.223 C 2216.954 582.524, 2222.189 581.552, 2227.361 581.063 C 2232.533 580.574, 2238.055 579.523, 2239.632 578.727 C 2241.209 577.932, 2244.668 576.997, 2247.317 576.651 C 2249.966 576.304, 2253.104 575.340, 2254.289 574.510 C 2255.475 573.679, 2257.184 573, 2258.088 573 C 2258.991 573, 2260.803 572.159, 2262.115 571.130 C 2263.427 570.102, 2265.957 568.942, 2267.739 568.553 C 2269.520 568.164, 2271.238 567.424, 2271.557 566.908 C 2271.876 566.392, 2273.568 565.302, 2275.318 564.487 C 2278.597 562.959, 2279.874 562.157, 2289.275 555.721 C 2298.079 549.693, 2310.835 536.555, 2317.545 526.601 C 2318.620 525.006, 2320.288 522.531, 2321.252 521.101 C 2322.216 519.670, 2323.705 517.150, 2324.562 515.500 C 2325.419 513.850, 2326.761 511.375, 2327.545 510 C 2328.329 508.625, 2328.980 506.825, 2328.992 506 C 2329.004 505.175, 2329.907 503.150, 2331 501.500 C 2332.093 499.850, 2332.990 497.185, 2332.993 495.579 C 2332.997 493.972, 2333.749 491.830, 2334.664 490.818 C 2335.625 489.757, 2336.365 487.185, 2336.414 484.740 L 2336.500 480.500 2299.043 480.282 C 2257.030 480.038, 2259.006 479.704, 2256.827 487.413 C 2256.192 489.661, 2255.140 491.950, 2254.490 492.500 C 2253.839 493.050, 2252.520 495.024, 2251.557 496.887 C 2249.563 500.746, 2238.373 512, 2236.529 512 C 2235.859 512, 2234.495 512.900, 2233.500 514 C 2232.505 515.100, 2230.800 516, 2229.713 516 C 2228.626 516, 2226.333 516.863, 2224.618 517.918 C 2222.903 518.974, 2217.900 520.358, 2213.500 520.995 C 2209.100 521.632, 2203.925 522.388, 2202 522.674 C 2200.075 522.960, 2194.337 522.476, 2189.250 521.597 C 2184.162 520.719, 2178.762 520.001, 2177.250 520.003 C 2174.875 520.005, 2169.047 517.727, 2164 514.823 C 2163.175 514.348, 2161.114 513.320, 2159.420 512.538 C 2157.727 511.756, 2155.759 510.415, 2155.048 509.558 C 2154.337 508.701, 2153.310 508, 2152.766 508 C 2150.561 508, 2137.101 495.642, 2137.032 493.554 C 2136.988 492.242, 2131.783 484.677, 2130.253 483.700 C 2129.564 483.260, 2128.997 481.910, 2128.993 480.700 C 2128.990 479.490, 2128.093 477.150, 2127 475.500 C 2125.907 473.850, 2125.010 471.428, 2125.007 470.118 C 2125.003 468.808, 2124.156 466.333, 2123.125 464.618 C 2121.323 461.620, 2119.649 448.181, 2120.713 445.250 C 2121.072 444.260, 2143.937 444, 2230.475 444 L 2339.783 444 2340.321 441.750 C 2341.151 438.272, 2339.349 405.936, 2338.106 402.007 C 2337.498 400.085, 2337 395.354, 2337 391.492 C 2337 386.381, 2336.456 383.455, 2335 380.739 C 2333.900 378.686, 2333 375.311, 2333 373.239 C 2333 371.166, 2332.100 367.791, 2331 365.739 C 2329.900 363.686, 2329 360.941, 2329 359.638 C 2329 358.336, 2328.169 356.197, 2327.152 354.885 C 2326.136 353.573, 2324.976 351.150, 2324.575 349.500 C 2324.173 347.850, 2323.257 345.825, 2322.540 345 C 2321.823 344.175, 2320.900 342.400, 2320.489 341.056 C 2320.079 339.713, 2318.225 336.455, 2316.371 333.817 C 2314.517 331.179, 2313 328.583, 2313 328.049 C 2313 327.515, 2312.192 326.273, 2311.204 325.289 C 2310.216 324.305, 2307.431 321.025, 2305.013 318 C 2300.669 312.564, 2294.489 306.382, 2289.515 302.500 C 2288.106 301.400, 2285.276 298.975, 2283.227 297.111 C 2281.177 295.247, 2278.114 293.135, 2276.420 292.419 C 2274.727 291.702, 2272.759 290.415, 2272.048 289.558 C 2271.337 288.701, 2270.196 288, 2269.512 288 C 2268.829 288, 2267.126 287.100, 2265.727 286 C 2264.329 284.900, 2262.426 284, 2261.500 284 C 2260.574 284, 2258.671 283.100, 2257.273 282 C 2255.874 280.900, 2253.496 280, 2251.988 280 C 2250.479 280, 2248.703 279.347, 2248.041 278.549 C 2247.378 277.751, 2244.736 276.824, 2242.168 276.490 C 2239.601 276.155, 2235.651 275.008, 2233.390 273.941 C 2230.795 272.715, 2227.110 271.994, 2223.390 271.983 C 2220.151 271.973, 2214.350 271.298, 2210.500 270.483 C 2202.999 268.894, 2188.346 268.708, 2181 270.108 M 2753.546 277.925 C 2753.232 278.434, 2752.983 345.572, 2752.993 427.120 C 2753.009 544.229, 2753.274 575.556, 2754.256 576.180 C 2754.940 576.614, 2771.532 576.976, 2791.128 576.985 C 2819.171 576.997, 2826.985 576.723, 2827.835 575.699 C 2829.011 574.281, 2829.580 281.676, 2828.413 278.633 C 2827.849 277.163, 2824.108 277, 2790.952 277 C 2769.458 277, 2753.880 277.385, 2753.546 277.925 M 2888.630 279.250 C 2888.299 280.488, 2888.021 295.282, 2888.014 312.128 C 2888.003 337.005, 2888.260 342.971, 2889.384 343.904 C 2890.399 344.746, 2909.017 345.031, 2959.116 344.972 C 3009.639 344.913, 3027.564 345.191, 3027.846 346.037 C 3028.056 346.667, 3026.687 348.829, 3024.803 350.841 C 3022.920 352.854, 3020.089 356.300, 3018.513 358.500 C 3016.938 360.700, 3015.033 363.175, 3014.281 364 C 3013.529 364.825, 3010.633 367.975, 3007.845 371 C 3005.057 374.025, 3001.759 378.075, 3000.518 380 C 2999.276 381.925, 2995.687 386.374, 2992.542 389.886 C 2985.776 397.443, 2986.320 396.793, 2979.900 405 C 2977.104 408.575, 2972.720 413.761, 2970.158 416.524 C 2965.864 421.156, 2963.046 424.762, 2960.500 428.883 C 2959.950 429.773, 2957.811 432.301, 2955.748 434.501 C 2953.684 436.700, 2951.361 439.175, 2950.587 440 C 2948.711 441.997, 2943.870 448.217, 2942 451.032 C 2941.175 452.274, 2938.608 455.363, 2936.295 457.895 C 2929.609 465.218, 2929.169 465.739, 2922.418 474.334 C 2918.890 478.825, 2914.228 484.356, 2912.057 486.624 C 2909.886 488.893, 2906.927 492.493, 2905.482 494.624 C 2901.801 500.051, 2897.221 505.496, 2892.254 510.350 L 2888.008 514.500 2888.019 544.500 C 2888.026 561, 2888.389 575.064, 2888.827 575.754 C 2889.459 576.750, 2913.771 576.956, 3007.062 576.754 L 3124.500 576.500 3124.764 545.211 C 3125.046 511.844, 3124.747 509.345, 3120.602 510.385 C 3119.373 510.694, 3088.472 510.986, 3051.934 511.035 L 2985.500 511.124 2985.192 508.653 C 2984.976 506.916, 2985.908 505.158, 2988.328 502.738 C 2990.222 500.844, 2992.334 498.244, 2993.021 496.960 C 2993.708 495.676, 2994.650 494.148, 2995.113 493.563 C 2996.710 491.549, 3004.504 482.633, 3006.287 480.782 C 3007.270 479.761, 3011.942 474.105, 3016.669 468.213 C 3021.396 462.321, 3025.793 457.050, 3026.441 456.500 C 3027.498 455.601, 3034.222 447.232, 3038.757 441.169 C 3039.715 439.888, 3042.338 436.963, 3044.584 434.669 C 3046.831 432.376, 3052.440 425.775, 3057.049 420 C 3061.658 414.225, 3065.955 409.050, 3066.597 408.500 C 3067.240 407.950, 3071.572 402.775, 3076.224 397 C 3080.876 391.225, 3087.232 383.800, 3090.349 380.500 C 3093.466 377.200, 3096.300 373.600, 3096.647 372.500 C 3096.994 371.400, 3098.228 369.570, 3099.389 368.433 C 3103.362 364.542, 3112.049 354.503, 3116.526 348.630 L 3121 342.759 3121 311.814 C 3121 292.395, 3120.614 280.148, 3119.965 278.934 C 3118.951 277.039, 3116.605 277, 3004.081 277 L 2889.233 277 2888.630 279.250 M 2174.421 330.417 C 2173.308 331.197, 2170.768 332.140, 2168.777 332.514 C 2163.893 333.430, 2153.499 338.790, 2149 342.711 C 2146.815 344.615, 2136.750 354.679, 2135.027 356.681 C 2133.433 358.533, 2130.819 363.009, 2129 366.998 C 2128.373 368.372, 2127.267 370.172, 2126.542 370.998 C 2125.816 371.824, 2124.897 374.075, 2124.500 376 C 2124.103 377.925, 2123.127 380.238, 2122.333 381.141 C 2121.357 382.249, 2120.987 384.522, 2121.194 388.141 C 2121.470 392.967, 2121.724 393.493, 2123.750 393.429 C 2124.988 393.389, 2157.050 393.277, 2195 393.179 L 2264 393 2264 388.723 C 2264 386.370, 2263.339 383.502, 2262.532 382.349 C 2261.725 381.197, 2260.756 378.284, 2260.380 375.877 C 2260.004 373.470, 2258.864 369.932, 2257.848 368.015 C 2256.832 366.098, 2256 363.784, 2256 362.872 C 2256 361.960, 2255.318 360.952, 2254.485 360.633 C 2253.652 360.313, 2252.507 359.027, 2251.942 357.776 C 2249.781 352.990, 2247.962 350.443, 2243.366 345.763 C 2238.847 341.160, 2236.437 339.437, 2231.175 337.048 C 2229.896 336.467, 2228.238 335.381, 2227.492 334.635 C 2226.745 333.888, 2224.362 332.994, 2222.197 332.647 C 2220.032 332.301, 2217.696 331.339, 2217.007 330.509 C 2215.220 328.355, 2177.482 328.274, 2174.421 330.417 M 2527.500 339.045 C 2524.750 340.075, 2521.221 340.936, 2519.658 340.958 C 2518.094 340.981, 2515.671 341.900, 2514.273 343 C 2512.874 344.100, 2511.074 345, 2510.273 345 C 2509.471 345, 2507.671 345.900, 2506.273 347 C 2504.874 348.100, 2503.149 349, 2502.439 349 C 2501.728 349, 2497.402 352.764, 2492.824 357.364 C 2483.550 366.682, 2482.058 368.421, 2480.246 372.014 C 2479.557 373.381, 2477.674 376.750, 2476.063 379.500 C 2474.451 382.250, 2473.103 385.797, 2473.066 387.382 C 2473.030 388.967, 2472.164 391.667, 2471.143 393.382 C 2468.014 398.637, 2466.493 421.717, 2468.048 440.336 C 2468.790 449.226, 2469.833 456.121, 2470.568 457 C 2471.258 457.825, 2472.136 460.623, 2472.520 463.218 C 2472.904 465.813, 2473.815 468.431, 2474.544 469.037 C 2475.274 469.643, 2476.184 471.570, 2476.566 473.319 C 2476.948 475.069, 2478.102 477.573, 2479.130 478.885 C 2480.159 480.197, 2481 481.698, 2481 482.221 C 2481 483.948, 2495.027 498.639, 2500.362 502.500 C 2501.882 503.600, 2503.872 505.288, 2504.785 506.250 C 2505.698 507.212, 2507.286 508, 2508.315 508 C 2509.343 508, 2511.329 508.900, 2512.727 510 C 2514.126 511.100, 2516.447 512.010, 2517.885 512.022 C 2519.323 512.034, 2522.462 512.934, 2524.859 514.022 C 2528.579 515.710, 2531.410 516, 2544.159 516 C 2555.081 516, 2559.835 515.620, 2561.834 514.586 C 2563.338 513.808, 2566.354 512.853, 2568.535 512.464 C 2570.716 512.075, 2573.903 510.911, 2575.618 509.878 C 2577.333 508.845, 2579.264 508, 2579.909 508 C 2582.782 508, 2597.734 495.738, 2603.518 488.637 C 2608.655 482.330, 2616 468.874, 2616 465.768 C 2616 464.593, 2616.837 461.802, 2617.861 459.566 C 2619.873 455.168, 2622.275 438.466, 2622.401 428 C 2622.533 416.895, 2620.044 397.855, 2617.929 393.802 C 2616.868 391.768, 2616 388.914, 2616 387.460 C 2616 386.005, 2615.100 383.671, 2614 382.273 C 2612.900 380.874, 2612 378.946, 2612 377.988 C 2612 377.029, 2611.342 375.699, 2610.539 375.032 C 2609.735 374.365, 2608.771 372.853, 2608.396 371.672 C 2607.150 367.746, 2588.815 349, 2586.221 349 C 2585.698 349, 2584.197 348.169, 2582.885 347.152 C 2581.573 346.136, 2579.150 344.976, 2577.500 344.575 C 2575.850 344.173, 2573.825 343.264, 2573 342.555 C 2572.175 341.846, 2568.874 340.972, 2565.664 340.614 C 2562.454 340.256, 2558.539 339.296, 2556.964 338.481 C 2552.637 336.244, 2534.033 336.600, 2527.500 339.045 M 1769 444.051 C 1766.525 444.491, 1760.590 444.885, 1755.812 444.926 C 1751.034 444.967, 1744.189 445.681, 1740.602 446.513 C 1737.015 447.344, 1728.036 448.427, 1720.649 448.919 C 1713.262 449.411, 1706.323 450.292, 1705.229 450.877 C 1704.135 451.463, 1699.474 452.359, 1694.870 452.868 C 1687.212 453.715, 1678.767 455.966, 1675 458.165 C 1674.175 458.646, 1672.114 459.680, 1670.420 460.462 C 1668.727 461.244, 1666.759 462.585, 1666.048 463.442 C 1665.337 464.299, 1664.196 465, 1663.514 465 C 1662.116 465, 1657.537 471.362, 1656.562 474.658 C 1656.211 475.844, 1655.266 477.068, 1654.462 477.376 C 1653.301 477.822, 1653 480.222, 1653 489.041 C 1653 499.195, 1653.222 500.523, 1655.601 504.582 C 1658.761 509.974, 1669.737 519.988, 1672.500 519.999 C 1673.600 520.004, 1676.075 520.985, 1678 522.181 C 1681.297 524.228, 1682.662 524.351, 1701.500 524.304 C 1719.680 524.259, 1721.910 524.062, 1726 522.149 C 1728.475 520.991, 1731.554 520.034, 1732.842 520.022 C 1734.131 520.010, 1736.329 519.100, 1737.727 518 C 1739.126 516.900, 1741.009 516, 1741.913 516 C 1742.816 516, 1744.326 515.100, 1745.268 514 C 1746.210 512.900, 1747.785 512, 1748.768 512 C 1749.751 512, 1751.286 511.212, 1752.178 510.250 C 1753.071 509.288, 1756.156 506.259, 1759.035 503.521 C 1765.806 497.078, 1771.608 490.069, 1772.428 487.342 C 1772.784 486.156, 1773.734 484.932, 1774.538 484.624 C 1775.342 484.315, 1776.003 483.261, 1776.006 482.281 C 1776.010 481.302, 1776.685 479.211, 1777.506 477.636 C 1778.636 475.469, 1779 471.142, 1779 459.861 L 1779 444.950 1776.435 443.975 C 1775.024 443.439, 1773.787 443.056, 1773.685 443.125 C 1773.583 443.194, 1771.475 443.611, 1769 444.051 M 391 448.054 C 389.625 449.159, 386.025 451.700, 383 453.700 C 379.975 455.701, 377.050 457.825, 376.500 458.419 C 375.950 459.014, 373.475 460.850, 371 462.500 C 368.525 464.150, 363.208 468.087, 359.184 471.250 C 355.161 474.413, 351.561 477.002, 351.184 477.005 C 350.808 477.007, 348.900 478.470, 346.945 480.255 C 344.990 482.040, 341.390 484.836, 338.945 486.468 C 334.321 489.556, 332.892 490.653, 329.438 493.765 C 328.304 494.787, 323.643 498.466, 319.079 501.940 C 314.515 505.414, 308.357 510.604, 305.394 513.474 L 300.007 518.691 299.928 659.096 L 299.849 799.500 347.924 799.760 L 396 800.019 396 623.010 C 396 482.057, 395.745 446.005, 394.750 446.022 C 394.063 446.034, 392.375 446.949, 391 448.054 M 193.614 585.487 C 191.598 586.856, 188.798 588.263, 187.393 588.616 C 185.988 588.969, 184.610 589.853, 184.331 590.580 C 184.052 591.308, 182.288 592.410, 180.412 593.029 C 178.535 593.648, 176.998 594.458, 176.997 594.828 C 176.995 595.197, 174.407 596.850, 171.247 598.500 C 168.086 600.150, 164.912 602.288, 164.193 603.250 C 163.475 604.212, 162.039 605, 161.002 605 C 159.966 605, 158.812 605.496, 158.437 606.102 C 158.062 606.708, 156.348 607.872, 154.628 608.689 C 149.037 611.343, 145.251 613.606, 143.537 615.320 C 142.613 616.244, 141.102 617.003, 140.179 617.006 C 138.347 617.012, 129.769 624.694, 128.089 627.834 C 126.962 629.939, 126.401 797.222, 127.515 799.024 C 127.889 799.629, 141.762 800, 164.059 800 L 200 800 200 691.500 C 200 600.669, 199.778 583, 198.640 583 C 197.891 583, 195.630 584.119, 193.614 585.487 M 2662.636 694.506 C 2661.060 695.328, 2657.460 696.003, 2654.636 696.007 C 2651.193 696.011, 2648.511 696.668, 2646.500 698 C 2644.850 699.093, 2642.600 699.993, 2641.500 700 C 2640.400 700.007, 2638.150 700.907, 2636.500 702 C 2634.850 703.093, 2632.745 703.990, 2631.821 703.993 C 2630.898 703.997, 2629.358 704.785, 2628.399 705.744 C 2627.440 706.703, 2625.893 707.940, 2624.960 708.494 C 2616.572 713.473, 2606.128 723.885, 2600.500 732.879 C 2599.950 733.758, 2598.713 735.555, 2597.750 736.873 C 2596.787 738.191, 2596 740.039, 2596 740.980 C 2596 741.920, 2595.100 743.505, 2594 744.500 C 2592.900 745.495, 2592 747.381, 2592 748.690 C 2592 749.999, 2591.312 752.120, 2590.471 753.404 C 2589.630 754.687, 2588.523 759.284, 2588.009 763.618 C 2587.496 767.953, 2586.609 773.072, 2586.038 774.993 C 2584.524 780.087, 2584.789 793.732, 2586.511 799.409 C 2587.330 802.109, 2588.003 806.609, 2588.007 809.409 C 2588.011 812.807, 2588.674 815.498, 2590 817.500 C 2591.093 819.150, 2591.990 821.452, 2591.993 822.615 C 2591.997 823.778, 2592.900 825.874, 2594 827.273 C 2595.100 828.671, 2596 830.471, 2596 831.273 C 2596 832.074, 2596.828 833.803, 2597.841 835.115 C 2598.853 836.427, 2600.856 839.525, 2602.291 842 C 2605.776 848.010, 2613.359 856.026, 2619.500 860.193 C 2626.656 865.049, 2633.654 869, 2635.099 869 C 2635.783 869, 2637.103 869.688, 2638.033 870.530 C 2638.963 871.371, 2642.240 872.469, 2645.316 872.970 C 2648.391 873.471, 2651.941 874.470, 2653.204 875.190 C 2654.862 876.136, 2660.363 876.492, 2673 876.471 C 2687.345 876.448, 2691.198 876.132, 2694.372 874.721 C 2696.502 873.775, 2699.338 873, 2700.674 873 C 2702.010 873, 2704.768 872.137, 2706.802 871.083 C 2708.836 870.028, 2711.625 868.673, 2713 868.070 C 2721.476 864.355, 2727.296 860.102, 2735.691 851.486 C 2740.811 846.231, 2745 841.147, 2745 840.188 C 2745 839.229, 2745.900 837.674, 2747 836.732 C 2748.100 835.790, 2749 834.299, 2749 833.418 C 2749 832.536, 2749.900 830.671, 2751 829.273 C 2752.100 827.874, 2753 825.541, 2753 824.088 C 2753 822.634, 2753.740 820.388, 2754.645 819.096 C 2755.550 817.804, 2756.639 813.542, 2757.065 809.624 C 2757.491 805.706, 2758.352 798.688, 2758.978 794.030 C 2760.014 786.329, 2759.959 785.443, 2758.368 784.280 C 2756.002 782.550, 2670.490 782.398, 2669.425 784.122 C 2668.502 785.615, 2668.478 806.346, 2669.397 807.834 C 2669.916 808.673, 2677.290 809, 2695.674 809 L 2721.230 809 2720.564 814.332 C 2719.666 821.522, 2714.671 831.287, 2708.842 837.250 C 2707.364 838.763, 2705.730 840, 2705.212 840 C 2704.694 840, 2703.197 840.801, 2701.885 841.781 C 2700.573 842.761, 2696.870 844.621, 2693.655 845.916 C 2688.475 848.002, 2686.241 848.265, 2674.008 848.226 C 2663.652 848.192, 2659.619 847.814, 2657.853 846.710 C 2656.559 845.900, 2654.278 844.955, 2652.785 844.609 C 2646.417 843.133, 2632.699 831.251, 2629.006 824.012 C 2627.919 821.880, 2626.572 819.854, 2626.014 819.509 C 2625.456 819.164, 2625 817.889, 2625 816.676 C 2625 815.463, 2624.007 812.677, 2622.794 810.485 C 2620.719 806.737, 2620.589 805.283, 2620.604 786 C 2620.619 766.666, 2620.744 765.301, 2622.806 762 C 2624.009 760.075, 2624.994 757.318, 2624.996 755.872 C 2624.998 754.427, 2625.675 752.685, 2626.500 752 C 2627.325 751.315, 2628 750.176, 2628 749.469 C 2628 747.091, 2637.194 736.870, 2644.693 730.910 C 2650.242 726.501, 2652.940 724.998, 2655.316 724.993 C 2657.067 724.990, 2659.850 724.093, 2661.500 723 C 2664.014 721.335, 2666.204 721.012, 2675.027 721.007 C 2682.334 721.002, 2686.159 721.420, 2687.527 722.372 C 2688.612 723.127, 2691.075 724.075, 2693 724.480 C 2694.925 724.885, 2698.075 726.137, 2700 727.264 C 2705.450 730.453, 2715.999 741.747, 2716.673 745.114 C 2716.998 746.740, 2717.992 748.460, 2718.882 748.936 C 2721.022 750.081, 2751.119 750.672, 2752.840 749.603 C 2754.616 748.500, 2753.550 742.416, 2750.946 738.790 C 2749.876 737.300, 2749 735.448, 2749 734.675 C 2749 733.902, 2748.100 732.126, 2747 730.727 C 2745.900 729.329, 2745 727.774, 2745 727.273 C 2745 726.771, 2743.988 725.444, 2742.750 724.324 C 2741.512 723.203, 2738.374 720.085, 2735.776 717.393 C 2727.287 708.599, 2726.398 707.906, 2719.318 704.542 C 2717.568 703.711, 2715.876 702.608, 2715.557 702.092 C 2715.238 701.576, 2713.520 700.834, 2711.739 700.444 C 2709.957 700.053, 2706.932 698.893, 2705.015 697.867 C 2703.098 696.840, 2699.907 696, 2697.924 696 C 2695.941 696, 2692.109 695.330, 2689.409 694.511 C 2682.809 692.509, 2666.471 692.506, 2662.636 694.506 M 898.750 696.689 C 897.100 697.120, 897 702.145, 897 784.451 C 897 860.120, 897.196 871.918, 898.473 872.977 C 900.398 874.575, 925.790 874.419, 927.744 872.797 C 928.856 871.874, 929.069 860.833, 928.943 810.588 C 928.803 755.228, 928.940 749.470, 930.395 749.177 C 931.565 748.941, 932.002 749.619, 932.007 751.677 C 932.010 753.230, 932.907 755.850, 934 757.500 C 935.093 759.150, 935.990 761.227, 935.993 762.115 C 935.997 763.003, 936.841 764.803, 937.870 766.115 C 938.898 767.427, 940.052 769.931, 940.434 771.681 C 940.816 773.430, 941.746 775.374, 942.500 776 C 943.254 776.626, 944.154 778.426, 944.500 780 C 944.846 781.574, 945.775 783.398, 946.564 784.053 C 947.354 784.709, 948 786.029, 948 786.988 C 948 787.946, 948.841 789.803, 949.870 791.115 C 950.898 792.427, 952.052 794.931, 952.434 796.681 C 952.816 798.430, 953.775 800.398, 954.564 801.053 C 955.354 801.709, 956 803.029, 956 803.988 C 956 804.946, 956.900 806.874, 958 808.273 C 959.100 809.671, 960 811.330, 960 811.960 C 960 812.589, 960.845 814.768, 961.878 816.802 C 963.611 820.214, 966.206 825.834, 968.895 832 C 969.495 833.375, 970.389 835.175, 970.881 836 C 971.374 836.825, 972.992 840.200, 974.477 843.500 C 975.961 846.800, 977.588 850.175, 978.091 851 C 978.593 851.825, 979.453 853.625, 980.002 855 C 980.550 856.375, 981.452 858.175, 982.006 859 C 982.560 859.825, 983.271 861.175, 983.588 862 C 986.809 870.403, 989.309 873.426, 993.840 874.395 C 997.330 875.141, 998.364 874.980, 1000.080 873.428 C 1002.135 871.568, 1009 858.812, 1009 856.853 C 1009 856.282, 1009.900 854.671, 1011 853.273 C 1012.100 851.874, 1013 849.736, 1013 848.520 C 1013 847.305, 1013.900 845.495, 1015 844.500 C 1016.100 843.505, 1017 841.818, 1017 840.753 C 1017 839.687, 1017.900 837.671, 1019 836.273 C 1020.100 834.874, 1021 833.074, 1021 832.273 C 1021 831.471, 1021.900 829.671, 1023 828.273 C 1024.100 826.874, 1025 824.652, 1025 823.334 C 1025 822.016, 1025.663 820.683, 1026.473 820.372 C 1027.283 820.061, 1028.240 818.239, 1028.599 816.324 C 1028.958 814.408, 1029.858 812.608, 1030.599 812.324 C 1031.340 812.039, 1032.230 810.291, 1032.577 808.439 C 1032.925 806.587, 1033.837 804.550, 1034.605 803.913 C 1035.372 803.276, 1036 802.283, 1036 801.707 C 1036 800.748, 1040.166 792.111, 1043.576 786 C 1044.343 784.625, 1044.977 782.739, 1044.985 781.809 C 1044.993 780.879, 1045.496 779.812, 1046.102 779.437 C 1046.708 779.062, 1047.840 777.348, 1048.617 775.628 C 1049.394 773.908, 1050.428 771.825, 1050.914 771 C 1053.442 766.712, 1057 758.608, 1057 757.140 C 1057 754.656, 1061.937 747.843, 1063.180 748.611 C 1063.883 749.046, 1064.016 751.546, 1063.566 755.887 C 1063.189 759.524, 1062.869 763.400, 1062.857 764.500 C 1062.844 765.600, 1062.861 790.174, 1062.895 819.109 C 1062.948 864.677, 1063.158 871.886, 1064.461 872.968 C 1066.659 874.792, 1090.953 874.681, 1092.119 872.841 C 1092.587 872.104, 1092.976 832.286, 1092.985 784.357 C 1092.998 705.807, 1092.844 697.154, 1091.418 696.607 C 1088.831 695.614, 1058.345 695.918, 1055.593 696.965 C 1054.039 697.556, 1052.799 699.008, 1052.394 700.715 C 1052.029 702.247, 1051.152 704.175, 1050.444 705 C 1049.735 705.825, 1048.852 707.719, 1048.480 709.209 C 1048.108 710.699, 1047.173 712.442, 1046.402 713.081 C 1045.631 713.721, 1045 714.735, 1045 715.335 C 1045 715.935, 1043.147 720.267, 1040.881 724.963 C 1038.616 729.658, 1035.641 735.975, 1034.270 739 C 1032.899 742.025, 1031.374 745.175, 1030.881 746 C 1030.389 746.825, 1029.501 748.625, 1028.910 750 C 1028.318 751.375, 1026.972 754.164, 1025.917 756.198 C 1024.863 758.232, 1024 760.539, 1024 761.326 C 1024 762.112, 1023.354 763.291, 1022.564 763.947 C 1021.775 764.602, 1020.829 766.503, 1020.462 768.171 C 1020.096 769.839, 1018.942 772.058, 1017.898 773.102 C 1016.854 774.146, 1016 776.025, 1016 777.278 C 1016 778.531, 1015.100 780.326, 1014 781.268 C 1012.900 782.210, 1012 784.055, 1012 785.368 C 1012 786.681, 1011.325 788.315, 1010.500 789 C 1009.675 789.685, 1009 790.798, 1009 791.474 C 1009 792.149, 1007.875 794.818, 1006.500 797.404 C 1005.125 799.990, 1004 802.799, 1004 803.645 C 1004 804.492, 1003.100 806.329, 1002 807.727 C 1000.900 809.126, 1000 811.317, 1000 812.596 C 1000 814.721, 996.604 819, 994.918 819 C 993.950 819, 993 816.303, 993 813.553 C 993 812.297, 992.159 810.197, 991.130 808.885 C 990.102 807.573, 988.948 805.069, 988.566 803.319 C 988.184 801.570, 987.225 799.602, 986.436 798.947 C 985.646 798.291, 985 797.157, 985 796.425 C 985 795.694, 983.200 791.677, 981 787.500 C 978.800 783.323, 977 779.321, 977 778.607 C 977 777.894, 976.100 776.495, 975 775.500 C 973.900 774.505, 973 772.695, 973 771.480 C 973 770.264, 972.128 768.161, 971.062 766.806 C 969.996 765.451, 968.827 763.159, 968.464 761.712 C 968.101 760.266, 967.173 758.558, 966.402 757.919 C 965.631 757.279, 965 756.207, 965 755.537 C 965 754.516, 961.203 746.552, 958.070 741 C 955.958 737.259, 952 728.363, 952 727.358 C 952 726.746, 951.354 725.709, 950.564 725.053 C 949.775 724.398, 948.846 722.574, 948.500 721 C 948.154 719.426, 947.237 717.612, 946.462 716.969 C 945.687 716.325, 944.766 714.269, 944.415 712.400 C 944.064 710.530, 943.395 709, 942.927 709 C 942.460 709, 941.620 707.313, 941.060 705.250 C 940.501 703.188, 938.890 700.263, 937.481 698.750 L 934.919 696 917.710 696.116 C 908.244 696.180, 899.712 696.438, 898.750 696.689 M 1238.853 696.657 C 1237.208 697.106, 1236.039 699.858, 1236.014 703.342 C 1236.006 704.356, 1235.100 706.329, 1234 707.727 C 1232.900 709.126, 1232 711.601, 1232 713.227 C 1232 714.854, 1231.100 717.329, 1230 718.727 C 1228.900 720.126, 1228 722.601, 1228 724.227 C 1228 725.854, 1227.100 728.329, 1226 729.727 C 1224.900 731.126, 1224 733.504, 1224 735.012 C 1224 736.521, 1223.321 738.319, 1222.491 739.007 C 1221.661 739.696, 1220.705 741.993, 1220.366 744.111 C 1220.028 746.229, 1219.143 748.466, 1218.402 749.082 C 1217.660 749.697, 1216.750 751.843, 1216.380 753.850 C 1216.010 755.858, 1214.873 759.068, 1213.853 760.985 C 1212.834 762.902, 1212 765.306, 1212 766.327 C 1212 767.349, 1211.100 769.329, 1210 770.727 C 1208.900 772.126, 1208 774.336, 1208 775.638 C 1208 776.941, 1207.100 779.686, 1206 781.739 C 1204.900 783.791, 1204 786.041, 1204 786.739 C 1204 787.436, 1203.100 789.686, 1202 791.739 C 1200.900 793.791, 1200 796.266, 1200 797.239 C 1200 798.211, 1199.100 800.686, 1198 802.739 C 1196.900 804.791, 1196 807.434, 1196 808.613 C 1196 809.791, 1195.372 811.276, 1194.605 811.913 C 1193.837 812.550, 1192.911 814.663, 1192.546 816.608 C 1192.181 818.554, 1191.010 821.575, 1189.945 823.323 C 1188.879 825.070, 1188.006 827.682, 1188.004 829.128 C 1188.002 830.573, 1187.337 832.305, 1186.526 832.978 C 1185.716 833.651, 1184.761 835.843, 1184.405 837.850 C 1184.048 839.858, 1182.911 842.903, 1181.878 844.618 C 1180.845 846.333, 1179.997 848.583, 1179.993 849.618 C 1179.990 850.653, 1179.093 852.850, 1178 854.500 C 1176.907 856.150, 1176.010 858.779, 1176.007 860.342 C 1176.003 861.906, 1175.100 864.329, 1174 865.727 C 1171.533 868.863, 1171.416 872.639, 1173.750 873.800 C 1174.713 874.278, 1181.705 874.406, 1189.289 874.085 C 1204.336 873.447, 1204.956 873.181, 1204.985 867.372 C 1204.993 865.652, 1205.663 863.695, 1206.474 863.022 C 1207.284 862.349, 1208.250 860.157, 1208.620 858.150 C 1208.990 856.142, 1210.127 852.932, 1211.147 851.015 C 1212.166 849.098, 1213 846.836, 1213 845.987 C 1213 845.139, 1213.760 843.361, 1214.688 842.035 C 1215.616 840.710, 1216.636 838.022, 1216.955 836.063 L 1217.534 832.500 1254.500 832.500 L 1291.466 832.500 1292.045 836.063 C 1292.364 838.022, 1293.384 840.710, 1294.312 842.035 C 1295.240 843.361, 1296 845.139, 1296 845.987 C 1296 846.836, 1296.834 849.098, 1297.853 851.015 C 1298.873 852.932, 1300.010 856.142, 1300.380 858.150 C 1300.750 860.157, 1301.716 862.349, 1302.526 863.022 C 1303.337 863.695, 1304 865.710, 1304 867.500 C 1304 872.886, 1305.658 873.468, 1321.902 873.785 C 1329.931 873.942, 1337.119 873.655, 1337.876 873.148 C 1339.029 872.376, 1338.961 871.437, 1337.456 867.363 C 1336.469 864.688, 1335.062 861.790, 1334.331 860.921 C 1333.599 860.053, 1332.997 858.253, 1332.993 856.921 C 1332.990 855.590, 1332.093 853.150, 1331 851.500 C 1329.907 849.850, 1329.010 847.323, 1329.007 845.885 C 1329.003 844.447, 1328.100 842.126, 1327 840.727 C 1325.900 839.329, 1324.998 837.131, 1324.996 835.842 C 1324.994 834.554, 1324.164 832.141, 1323.151 830.480 C 1322.138 828.819, 1321.002 825.826, 1320.628 823.830 C 1320.253 821.834, 1319.340 819.697, 1318.598 819.082 C 1317.857 818.466, 1316.972 816.229, 1316.634 814.111 C 1316.295 811.993, 1315.339 809.696, 1314.509 809.007 C 1313.679 808.319, 1312.998 806.573, 1312.996 805.128 C 1312.994 803.682, 1312.094 801.027, 1310.996 799.226 C 1309.898 797.425, 1309 795.168, 1309 794.211 C 1309 793.254, 1308.132 790.851, 1307.071 788.871 C 1306.010 786.891, 1304.838 783.651, 1304.466 781.671 C 1304.095 779.691, 1303.163 777.550, 1302.395 776.913 C 1301.628 776.276, 1301 774.626, 1301 773.246 C 1301 771.865, 1300.155 769.333, 1299.122 767.618 C 1298.089 765.903, 1296.952 762.858, 1296.595 760.850 C 1296.239 758.843, 1295.284 756.651, 1294.474 755.978 C 1293.663 755.305, 1292.997 753.573, 1292.993 752.128 C 1292.990 750.682, 1292.093 748.150, 1291 746.500 C 1289.907 744.850, 1289.010 742.331, 1289.007 740.903 C 1289.003 739.475, 1288.157 737.334, 1287.127 736.146 C 1286.096 734.958, 1284.975 732.248, 1284.636 730.123 C 1284.296 727.998, 1283.339 725.696, 1282.509 725.007 C 1281.679 724.319, 1280.997 722.573, 1280.993 721.128 C 1280.990 719.682, 1280.093 717.150, 1279 715.500 C 1277.907 713.850, 1277.010 711.630, 1277.007 710.566 C 1277.001 708.896, 1274.658 702.930, 1272.072 698 C 1271.430 696.776, 1268.453 696.473, 1255.892 696.354 C 1247.427 696.273, 1239.759 696.410, 1238.853 696.657 M 1415.139 697.332 C 1414.177 698.492, 1413.909 717.983, 1413.932 785.107 C 1413.958 859.341, 1414.166 871.595, 1415.421 872.849 C 1416.576 874.004, 1419.640 874.262, 1430.172 874.088 C 1437.483 873.968, 1443.697 873.637, 1443.982 873.353 C 1444.267 873.069, 1444.725 859.486, 1445 843.168 L 1445.500 813.500 1458.481 813.218 L 1471.462 812.937 1475.806 817.668 C 1478.195 820.270, 1481.332 824.447, 1482.777 826.950 C 1484.222 829.452, 1485.736 831.735, 1486.142 832.022 C 1487.258 832.811, 1492 839.977, 1492 840.875 C 1492 841.307, 1493.794 843.649, 1495.986 846.080 C 1498.178 848.511, 1499.978 850.815, 1499.986 851.200 C 1500.008 852.307, 1506.067 860.999, 1506.821 861.006 C 1507.683 861.014, 1511.263 866.862, 1512.016 869.492 C 1513.058 873.133, 1516.719 873.970, 1531.668 873.985 C 1539.461 873.993, 1546.548 873.727, 1547.418 873.393 C 1549.627 872.545, 1549.392 868.665, 1547 866.500 C 1545.900 865.505, 1545 864.249, 1545 863.710 C 1545 863.170, 1543.987 861.690, 1542.750 860.421 C 1538.012 855.559, 1537 854.298, 1537 853.256 C 1537 852.664, 1535.282 850.002, 1533.182 847.340 C 1531.082 844.678, 1528.092 840.323, 1526.536 837.662 C 1524.980 835.002, 1523.098 832.591, 1522.354 832.305 C 1521.609 832.020, 1521 831.247, 1521 830.587 C 1521 829.507, 1518.812 826.126, 1514.474 820.500 C 1508.595 812.878, 1507 810.640, 1507 810.017 C 1507 808.527, 1510.924 805.860, 1514.616 804.840 C 1516.735 804.255, 1519.436 803.039, 1520.619 802.138 C 1521.801 801.237, 1523.809 799.825, 1525.080 799 C 1529.348 796.231, 1537 788.740, 1537 787.332 C 1537 786.565, 1537.658 785.685, 1538.462 785.376 C 1539.266 785.068, 1540.228 783.844, 1540.599 782.658 C 1540.971 781.471, 1542.113 779.427, 1543.138 778.115 C 1544.162 776.803, 1545 774.427, 1545 772.833 C 1545 771.240, 1545.675 768.320, 1546.500 766.346 C 1547.452 764.066, 1548 759.504, 1548 753.846 C 1548 748.188, 1547.452 743.625, 1546.500 741.346 C 1545.675 739.371, 1545 736.561, 1545 735.100 C 1545 733.640, 1544.257 731.385, 1543.350 730.089 C 1542.442 728.794, 1540.607 725.656, 1539.271 723.117 C 1536.802 718.424, 1526.897 708, 1524.907 708 C 1524.307 708, 1522.671 707.100, 1521.273 706 C 1519.874 704.900, 1518.039 704, 1517.194 704 C 1516.349 704, 1514.881 703.297, 1513.932 702.439 C 1512.983 701.580, 1509.573 700.496, 1506.353 700.031 C 1503.134 699.565, 1499.150 698.600, 1497.500 697.886 C 1495.264 696.918, 1484.554 696.493, 1455.438 696.214 C 1421.730 695.892, 1416.207 696.045, 1415.139 697.332 M 1629.200 697.200 C 1627.461 698.939, 1627.461 871.061, 1629.200 872.800 C 1631.062 874.662, 1658.375 874.458, 1659.942 872.570 C 1660.799 871.537, 1661.068 864.451, 1660.910 847.049 L 1660.691 822.958 1663.095 820.335 C 1669.910 812.899, 1670.596 812.026, 1674.529 805.787 C 1676.163 803.194, 1677.859 801.057, 1678.298 801.037 C 1679.208 800.995, 1683.920 806.129, 1683.968 807.215 C 1683.986 807.608, 1685.358 809.858, 1687.018 812.215 C 1688.678 814.572, 1691.705 818.975, 1693.744 822 C 1695.783 825.025, 1697.941 827.950, 1698.540 828.500 C 1699.139 829.050, 1701.842 832.875, 1704.547 837 C 1707.252 841.125, 1710.036 844.860, 1710.733 845.300 C 1711.430 845.740, 1712 846.682, 1712 847.395 C 1712 848.107, 1712.900 849.505, 1714 850.500 C 1715.100 851.495, 1716 852.890, 1716 853.598 C 1716 854.307, 1716.787 855.477, 1717.750 856.198 C 1719.803 857.736, 1724 863.521, 1724 864.813 C 1724 865.305, 1725.138 867.011, 1726.528 868.604 C 1727.919 870.197, 1729.512 872.063, 1730.068 872.750 C 1730.785 873.637, 1734.949 874, 1744.400 874 C 1751.726 874, 1759.800 874.285, 1762.341 874.633 C 1769.291 875.586, 1769.405 873.481, 1762.847 865.245 C 1759.893 861.535, 1756.132 856.490, 1754.488 854.034 C 1751.722 849.900, 1750.293 848.099, 1746.454 843.916 C 1745.654 843.045, 1745 841.648, 1745 840.812 C 1745 839.472, 1743.554 837.478, 1738.608 832 C 1737.863 831.175, 1736.968 829.571, 1736.619 828.436 C 1736.269 827.302, 1734.412 824.657, 1732.492 822.561 C 1730.571 820.464, 1729 818.425, 1729 818.029 C 1729 817.634, 1728.100 816.495, 1727 815.500 C 1725.900 814.505, 1725 813.166, 1725 812.525 C 1725 811.884, 1723.601 809.817, 1721.891 807.930 C 1719.183 804.943, 1716.158 800.721, 1712.520 794.854 C 1708.920 789.047, 1703.374 781.377, 1702.286 780.700 C 1700.078 779.327, 1700.855 776.889, 1705.026 772.112 C 1707.240 769.575, 1710.053 766.334, 1711.276 764.909 C 1712.499 763.484, 1716.639 758.824, 1720.474 754.554 C 1724.310 750.284, 1728.175 745.600, 1729.063 744.145 C 1729.950 742.690, 1732.945 739.025, 1735.718 736 C 1738.490 732.975, 1742.613 728.475, 1744.879 726 C 1747.146 723.526, 1749 721.101, 1749 720.612 C 1749 719.732, 1752.133 716.049, 1762.677 704.537 C 1770.200 696.323, 1769.622 695.997, 1747.559 696.011 L 1730.500 696.021 1727.421 699.261 C 1725.728 701.042, 1721.822 705.941, 1718.741 710.146 C 1715.660 714.352, 1712.278 718.627, 1711.226 719.646 C 1709.568 721.252, 1704.086 728.076, 1698.243 735.807 C 1697.285 737.075, 1694.925 739.802, 1693 741.867 C 1689.548 745.569, 1679.206 757.556, 1677.787 759.500 C 1677.036 760.528, 1675.230 762.672, 1668.791 770.177 C 1666.751 772.555, 1664.425 775.399, 1663.623 776.498 C 1662.820 777.598, 1661.863 778.196, 1661.495 777.828 C 1661.127 777.460, 1660.883 759.529, 1660.954 737.981 C 1661.046 709.503, 1660.764 698.420, 1659.918 697.401 C 1658.373 695.540, 1631.040 695.360, 1629.200 697.200 M 1844.191 696.861 C 1842.239 698.099, 1842.380 870.809, 1844.336 872.764 C 1845.413 873.841, 1856.131 874.082, 1900.555 874.026 C 1930.744 873.988, 1955.765 873.629, 1956.159 873.228 C 1957.125 872.245, 1957.524 849.191, 1956.592 848.258 C 1956.185 847.852, 1937.588 847.419, 1915.264 847.297 C 1892.939 847.174, 1874.289 846.689, 1873.818 846.218 C 1873.346 845.746, 1873.082 835.267, 1873.230 822.930 L 1873.500 800.500 1912.647 800.238 C 1944.685 800.024, 1951.890 799.728, 1952.320 798.608 C 1953.300 796.054, 1953.356 773.956, 1952.385 772.985 C 1951.812 772.412, 1935.679 771.918, 1912.462 771.762 L 1873.500 771.500 1873.500 748 L 1873.500 724.500 1914.225 724.324 C 1936.624 724.228, 1955.412 723.863, 1955.975 723.515 C 1956.589 723.136, 1957 717.730, 1957 710.048 C 1957 699.268, 1956.747 697.117, 1955.418 696.607 C 1952.985 695.673, 1845.678 695.918, 1844.191 696.861 M 2023.968 698.060 C 2022.773 700.292, 2023.269 722.007, 2024.561 724.099 C 2025.105 724.978, 2031.756 725.151, 2050.583 724.777 C 2067.748 724.436, 2076.216 724.616, 2076.937 725.337 C 2077.668 726.068, 2078 749.107, 2078 799.078 C 2078 858.309, 2078.246 871.959, 2079.329 872.858 C 2080.134 873.526, 2085.175 873.947, 2092.102 873.925 C 2098.396 873.905, 2104.251 874.159, 2105.112 874.490 C 2108.896 875.942, 2108.980 874.398, 2109.244 798.405 L 2109.500 724.500 2135.897 724.750 C 2154.290 724.925, 2162.705 724.660, 2163.647 723.878 C 2165.452 722.380, 2165.586 698.986, 2163.800 697.200 C 2162.890 696.290, 2145.986 696, 2093.835 696 C 2025.422 696, 2025.065 696.011, 2023.968 698.060 M 2236.431 697.179 C 2235.864 697.983, 2235.696 732.689, 2236 785.928 L 2236.500 873.357 2239 873.942 C 2241.992 874.643, 2265.590 873.754, 2266.429 872.908 C 2267.228 872.104, 2267.270 697.938, 2266.473 697.136 C 2266.124 696.786, 2259.432 696.356, 2251.601 696.179 C 2240.650 695.932, 2237.147 696.163, 2236.431 697.179 M 2357.200 697.200 C 2355.461 698.939, 2355.461 871.061, 2357.200 872.800 C 2358.611 874.211, 2383.692 874.482, 2385.858 873.109 C 2386.976 872.400, 2387.186 863.681, 2387.045 823.874 C 2386.854 769.831, 2386.667 761.370, 2385.528 755.250 C 2384.888 751.812, 2385.019 751, 2386.213 751 C 2387.900 751, 2390.108 753.300, 2392.117 757.150 C 2392.878 758.608, 2395.300 762.430, 2397.500 765.643 C 2401.181 771.019, 2402.429 772.597, 2406.546 777.084 C 2407.346 777.955, 2408 779.240, 2408 779.940 C 2408 781.103, 2409.690 783.481, 2415.036 789.835 C 2416.116 791.119, 2417 792.719, 2417 793.390 C 2417 794.060, 2418.463 796.218, 2420.250 798.185 C 2424.443 802.798, 2428 807.677, 2428 808.813 C 2428 809.620, 2430.470 812.754, 2434.519 817.084 C 2435.334 817.955, 2436 819.124, 2436 819.681 C 2436 820.651, 2437.342 822.526, 2441.955 828 C 2444.216 830.683, 2451.647 841.065, 2457.703 850 C 2459.753 853.025, 2461.757 855.735, 2462.155 856.022 C 2463.287 856.837, 2468 863.995, 2468 864.898 C 2468 865.344, 2469.125 866.922, 2470.500 868.405 C 2471.875 869.889, 2473 871.481, 2473 871.943 C 2473 872.405, 2474.238 873.098, 2475.750 873.482 C 2479.429 874.417, 2498.916 874.495, 2501.750 873.587 L 2504 872.865 2504 785.040 C 2504 705.877, 2503.844 697.154, 2502.418 696.607 C 2501.548 696.273, 2494.853 696, 2487.541 696 C 2477.227 696, 2473.979 696.321, 2473.057 697.431 C 2472.162 698.510, 2471.947 713.287, 2472.185 757.431 C 2472.481 812.421, 2472.394 816.001, 2470.769 816 C 2469.735 816, 2468.773 814.944, 2468.380 813.377 C 2467.638 810.423, 2463.025 803, 2461.931 803 C 2461.538 803, 2460.962 801.983, 2460.650 800.741 C 2460.338 799.498, 2458.450 796.698, 2456.454 794.519 C 2454.458 792.340, 2451.636 788.529, 2450.183 786.049 C 2447.763 781.921, 2446.776 780.626, 2442.454 775.916 C 2441.654 775.045, 2441 773.867, 2441 773.298 C 2441 772.729, 2438.300 768.770, 2435 764.500 C 2431.700 760.230, 2429 756.411, 2429 756.014 C 2429 755.356, 2426.286 751.986, 2422.481 747.916 C 2421.666 747.045, 2421 745.862, 2421 745.286 C 2421 744.711, 2419.088 741.728, 2416.750 738.658 C 2412.004 732.423, 2407.264 725.920, 2405 722.539 C 2404.175 721.306, 2402.622 718.994, 2401.549 717.399 C 2400.475 715.805, 2397.503 711.800, 2394.943 708.500 C 2392.383 705.200, 2389.706 701.375, 2388.995 700 C 2388.283 698.625, 2387.205 697.169, 2386.600 696.765 C 2384.673 695.479, 2358.535 695.865, 2357.200 697.200 M 1445.504 725.129 C 1445.210 725.896, 1445.089 739.793, 1445.235 756.012 L 1445.500 785.500 1461 785.835 C 1477.341 786.188, 1494.479 784.596, 1497 782.490 C 1497.825 781.800, 1499.400 780.960, 1500.500 780.621 C 1502.364 780.047, 1506.503 776.431, 1510 772.321 C 1511.664 770.365, 1513.889 763.475, 1514.681 757.822 C 1515.740 750.261, 1509.997 733.769, 1505.846 732.451 C 1504.831 732.129, 1504 731.509, 1504 731.075 C 1504 730.640, 1501.638 729.034, 1498.750 727.507 C 1493.533 724.747, 1493.349 724.726, 1469.769 724.232 C 1450.066 723.819, 1445.948 723.972, 1445.504 725.129 M 1253.070 737.870 C 1252.481 738.969, 1252 740.830, 1252 742.006 C 1252 743.181, 1251.387 744.756, 1250.639 745.504 C 1249.890 746.253, 1248.994 748.638, 1248.647 750.803 C 1248.301 752.968, 1247.339 755.304, 1246.509 755.993 C 1245.679 756.681, 1245 758.374, 1245 759.754 C 1245 761.135, 1244.149 763.667, 1243.108 765.382 C 1242.067 767.097, 1240.892 770.075, 1240.497 772 C 1240.101 773.925, 1239.213 776.175, 1238.524 777 C 1237.835 777.825, 1237.004 780.243, 1236.678 782.374 C 1236.352 784.505, 1235.391 787.015, 1234.543 787.953 C 1233.694 788.890, 1233 790.529, 1233 791.594 C 1233 792.658, 1232.100 795.209, 1231 797.261 C 1229.900 799.314, 1229 802.232, 1229 803.746 L 1229.001 806.500 1254.501 806.500 L 1280 806.500 1280 802.746 C 1280 800.682, 1279.100 797.314, 1278 795.261 C 1276.900 793.209, 1276 790.341, 1276 788.887 C 1276 787.434, 1275.337 785.695, 1274.526 785.022 C 1273.716 784.349, 1272.759 782.157, 1272.400 780.150 C 1272.041 778.142, 1271.109 775.768, 1270.331 774.874 C 1269.552 773.980, 1268.648 771.505, 1268.322 769.374 C 1267.996 767.243, 1267.157 764.825, 1266.458 764 C 1265.758 763.175, 1264.687 760.700, 1264.077 758.500 C 1263.467 756.300, 1262.300 753.626, 1261.484 752.559 C 1260.668 751.491, 1259.986 749.466, 1259.968 748.059 C 1259.951 746.651, 1259.276 744.626, 1258.468 743.559 C 1257.661 742.491, 1257 740.859, 1257 739.931 C 1257 739.004, 1256.356 737.711, 1255.570 737.058 C 1254.428 736.110, 1253.924 736.274, 1253.070 737.870" fill="#FAF9F6" fill-rule="evenodd"/></svg>